<svg xmlns="http://www.w3.org/2000/svg" width="853.18" height="638.31" viewBox="0 0 853.18 638.31"><defs><style>.a{fill:#f2f2f2;}.b{fill:#3f3d56;}.c{fill:#6c63ff;}.d{fill:#2f2e41;}.e{fill:#fff;}.f{fill:#ffb6b6;}.g{fill:#e6e6e6;}.h{opacity:0.2;}</style></defs><g transform="translate(0 0)"><circle class="a" cx="31.452" cy="31.452" r="31.452" transform="translate(465.081 55.93)"/><path class="a" d="M914.607,711.145a142.132,142.132,0,0,0,49.977-143.456q-.473-2-1-3.993c-8.406-31.868-29.2-62.155-59.511-72.338-25.449-8.55-53.228-1.975-79.778-5.375-52.119-6.674-92.526-50.4-120.957-96.189s-50.282-97.035-88.061-134.861c-62.273-62.349-163.855-75.772-241.064-35.188S247.825,350.37,249.922,440.106,303.393,615.636,378,661.155c27.407,16.722,59.106,28.568,90.654,24.423,27.373-3.6,52.245-18.849,79.489-23.377,42.834-7.119,85.4,12.964,122.444,36.366s72.834,51.142,114.934,61.991C826.4,771.092,877.043,740.813,914.607,711.145Z" transform="translate(-198.89 -158.048)"/><path class="b" d="M819.539,229.035c-.879-.683-1.768-1.331-2.647-1.991a364.122,364.122,0,0,0-81.146-45.858l-6.608,106.275H687.245V165.673c-2.637-.636-5.295-1.237-7.952-1.8V287.462H629.511c-57.07,0-103.335-53.936-103.335-120.469h0c-2.667.671-5.315,1.39-7.962,2.156V287.462H477.666l-6.295-101.339A370.2,370.2,0,0,0,388.578,237.4c-.445.353-.889.719-1.324,1.072q-3.35,2.739-6.628,5.572v405.44h119.5l-2.112-34.1L486.4,428.145h234l-11.62,187.236-2.112,34.1H824.843V233.135Q822.206,231.05,819.539,229.035ZM518.214,397.224H484.476l-6.234-100.48h39.972Zm161.08,0H622.63v-1.991a7.933,7.933,0,0,0-1.833-5.152,5.828,5.828,0,0,0-4.422-2.128H591.741c-3.449,0-6.246,3.259-6.244,7.28v1.991H526.176V296.744H679.294Zm7.952,0V296.744h41.316l-6.234,100.48Z" transform="translate(-175.619 -163.871)"/><path class="b" d="M206.59,598.162a329.485,329.485,0,0,0,30.492,34.1l792.2,1.178a329.47,329.47,0,0,0,30.492-34.1Z" transform="translate(-206.59 -115.243)"/><path class="b" d="M702.02,506.194V607.15A4.856,4.856,0,0,0,706.872,612h149.6a4.856,4.856,0,0,0,4.852-4.852V506.194a4.858,4.858,0,0,0-4.852-4.847H706.872a4.858,4.858,0,0,0-4.852,4.847Z" transform="translate(-174.433 -129.063)"/><path class="c" d="M705,506.922v98.454a2.6,2.6,0,0,0,2.593,2.593H854.7a2.6,2.6,0,0,0,2.593-2.593V506.922a2.6,2.6,0,0,0-2.593-2.6H707.593a2.6,2.6,0,0,0-2.594,2.6Z" transform="translate(-173.729 -128.443)"/><path class="d" d="M699.464,610.39a2.91,2.91,0,0,0,2.289,1.1H861.945a2.948,2.948,0,0,0,2.881-3.552l-2.487-11.812a2.953,2.953,0,0,0-1.835-2.141,2.854,2.854,0,0,0-1.046-.2H704.23a2.858,2.858,0,0,0-1.046.2,2.953,2.953,0,0,0-1.835,2.141l-2.487,11.812a2.945,2.945,0,0,0,.6,2.457Z" transform="translate(-175.137 -114.974)"/><rect class="b" width="4.934" height="2.96" rx="0.488" transform="translate(680.646 484.389) rotate(180)"/><rect class="b" width="4.934" height="2.96" rx="0.488" transform="translate(671.567 484.389) rotate(180)"/><rect class="b" width="4.934" height="2.96" rx="0.488" transform="translate(662.487 484.389) rotate(180)"/><rect class="b" width="4.934" height="2.96" rx="0.488" transform="translate(653.408 484.389) rotate(180)"/><rect class="b" width="4.934" height="2.96" rx="0.488" transform="translate(644.329 484.389) rotate(180)"/><rect class="b" width="4.934" height="2.96" rx="0.488" transform="translate(635.25 484.389) rotate(180)"/><rect class="b" width="4.934" height="2.96" rx="0.488" transform="translate(626.17 484.389) rotate(180)"/><rect class="b" width="4.934" height="2.96" rx="0.488" transform="translate(617.091 484.389) rotate(180)"/><rect class="b" width="4.934" height="2.96" rx="0.488" transform="translate(608.012 484.389) rotate(180)"/><rect class="b" width="4.934" height="2.96" rx="0.488" transform="translate(598.932 484.389) rotate(180)"/><rect class="b" width="4.934" height="2.96" rx="0.488" transform="translate(589.853 484.389) rotate(180)"/><rect class="b" width="4.934" height="2.96" rx="0.488" transform="translate(580.774 484.389) rotate(180)"/><rect class="b" width="4.934" height="2.96" rx="0.488" transform="translate(571.695 484.389) rotate(180)"/><rect class="b" width="4.934" height="2.96" rx="0.488" transform="translate(562.615 484.389) rotate(180)"/><rect class="b" width="4.934" height="2.96" rx="0.488" transform="translate(553.536 484.389) rotate(180)"/><rect class="b" width="4.934" height="2.96" rx="0.488" transform="translate(544.457 484.389) rotate(180)"/><rect class="b" width="4.934" height="2.96" rx="0.488" transform="translate(680.753 489.06) rotate(180)"/><rect class="b" width="4.934" height="2.96" rx="0.488" transform="translate(671.674 489.06) rotate(180)"/><rect class="b" width="4.934" height="2.96" rx="0.488" transform="translate(662.594 489.06) rotate(180)"/><rect class="b" width="4.934" height="2.96" rx="0.488" transform="translate(653.515 489.06) rotate(180)"/><rect class="b" width="4.934" height="2.96" rx="0.488" transform="translate(644.436 489.06) rotate(180)"/><rect class="b" width="4.934" height="2.96" rx="0.488" transform="translate(635.357 489.06) rotate(180)"/><rect class="b" width="4.934" height="2.96" rx="0.488" transform="translate(626.277 489.06) rotate(180)"/><rect class="b" width="4.934" height="2.96" rx="0.488" transform="translate(617.198 489.06) rotate(180)"/><rect class="b" width="4.934" height="2.96" rx="0.488" transform="translate(608.119 489.06) rotate(180)"/><rect class="b" width="4.934" height="2.96" rx="0.488" transform="translate(599.04 489.06) rotate(180)"/><rect class="b" width="4.934" height="2.96" rx="0.488" transform="translate(589.96 489.06) rotate(180)"/><rect class="b" width="4.934" height="2.96" rx="0.488" transform="translate(580.881 489.06) rotate(180)"/><rect class="b" width="4.934" height="2.96" rx="0.488" transform="translate(571.802 489.06) rotate(180)"/><rect class="b" width="4.934" height="2.96" rx="0.488" transform="translate(562.723 489.06) rotate(180)"/><rect class="b" width="4.934" height="2.96" rx="0.488" transform="translate(553.643 489.06) rotate(180)"/><rect class="b" width="4.934" height="2.96" rx="0.488" transform="translate(544.564 489.06) rotate(180)"/><rect class="b" width="39.471" height="2.96" rx="0.488" transform="translate(637.903 494.665) rotate(180)"/><rect class="e" width="7.028" height="3.678" rx="1.561" transform="translate(558.75 400.021)"/><rect class="e" width="7.028" height="3.678" rx="1.561" transform="translate(593.993 400.021)"/><rect class="e" width="7.028" height="3.678" rx="1.561" transform="translate(603.978 400.021)"/><rect class="e" width="24.497" height="3.678" rx="1.561" transform="translate(567.378 399.731)"/><rect class="e" width="24.497" height="3.678" rx="1.561" transform="translate(614.289 399.731)"/><rect class="e" width="7.028" height="3.678" rx="1.561" transform="translate(568.148 407.879)"/><rect class="e" width="7.028" height="3.678" rx="1.561" transform="translate(603.391 407.879)"/><rect class="e" width="7.028" height="3.678" rx="1.561" transform="translate(613.377 407.879)"/><rect class="e" width="24.497" height="3.678" rx="1.561" transform="translate(576.761 407.588)"/><rect class="e" width="24.497" height="3.678" rx="1.561" transform="translate(623.672 407.588)"/><rect class="e" width="7.028" height="3.678" rx="1.561" transform="translate(577.547 415.736)"/><rect class="e" width="7.028" height="3.678" rx="1.561" transform="translate(612.789 415.736)"/><rect class="e" width="7.028" height="3.678" rx="1.561" transform="translate(622.775 415.736)"/><rect class="e" width="24.497" height="3.678" rx="1.561" transform="translate(586.143 415.446)"/><rect class="e" width="24.497" height="3.678" rx="1.561" transform="translate(633.054 415.446)"/><rect class="e" width="7.028" height="3.678" rx="1.561" transform="translate(586.944 423.594)"/><rect class="e" width="7.028" height="3.678" rx="1.561" transform="translate(622.187 423.594)"/><rect class="e" width="7.028" height="3.678" rx="1.561" transform="translate(632.172 423.594)"/><rect class="e" width="24.497" height="3.678" rx="1.561" transform="translate(595.525 423.304)"/><rect class="e" width="7.028" height="3.678" rx="1.561" transform="translate(593.993 454.839)"/><rect class="e" width="7.028" height="3.678" rx="1.561" transform="translate(603.978 454.839)"/><rect class="e" width="24.497" height="3.678" rx="1.561" transform="translate(614.289 455.129)"/><rect class="e" width="7.028" height="3.678" rx="1.561" transform="translate(558.75 454.839)"/><rect class="e" width="24.497" height="3.678" rx="1.561" transform="translate(567.378 455.129)"/><rect class="e" width="7.028" height="3.678" rx="1.561" transform="translate(568.148 446.981)"/><rect class="e" width="7.028" height="3.678" rx="1.561" transform="translate(603.391 446.981)"/><rect class="e" width="7.028" height="3.678" rx="1.561" transform="translate(613.377 446.981)"/><rect class="e" width="24.497" height="3.678" rx="1.561" transform="translate(576.761 447.271)"/><rect class="e" width="7.028" height="3.678" rx="1.561" transform="translate(577.547 439.123)"/><rect class="e" width="7.028" height="3.678" rx="1.561" transform="translate(612.789 439.123)"/><rect class="e" width="7.028" height="3.678" rx="1.561" transform="translate(622.775 439.123)"/><rect class="e" width="24.497" height="3.678" rx="1.561" transform="translate(586.143 439.413)"/><rect class="e" width="7.028" height="3.678" rx="1.561" transform="translate(586.944 431.266)"/><rect class="e" width="7.028" height="3.678" rx="1.561" transform="translate(622.187 431.266)"/><rect class="e" width="7.028" height="3.678" rx="1.561" transform="translate(632.172 431.266)"/><rect class="e" width="24.497" height="3.678" rx="1.561" transform="translate(595.525 431.556)"/><path class="f" d="M713.883,668.587l-15.725-24.857,49.359-39.347,20.373-22.571a22.571,22.571,0,0,1,38.187,8.043h0a22.571,22.571,0,0,1-13.629,28.26l-32.216,11.868Z" transform="translate(-171.269 -126.606)"/><path class="d" d="M398.28,501.968V622.779h84.636V501.968a4.061,4.061,0,0,0-2.862-3.887,3.74,3.74,0,0,0-1.213-.188H402.368A4.08,4.08,0,0,0,398.28,501.968Zm33.03,41.511a9.035,9.035,0,1,1,18.07,0V557.5a9.035,9.035,0,1,1-18.07,0Z" transform="translate(-192.226 -130.067)"/><path class="b" d="M398.06,600.632v11.65a2.293,2.293,0,0,0,2.273,2.285h80.607a2.285,2.285,0,0,0,2.273-2.285v-11.65Z" transform="translate(-192.255 -114.035)"/><path class="b" d="M285.25,348.432V569.016a10.61,10.61,0,0,0,10.6,10.6H622.734a10.61,10.61,0,0,0,10.6-10.6V348.432a10.615,10.615,0,0,0-10.6-10.59H295.852a10.615,10.615,0,0,0-10.6,10.59Z" transform="translate(-192.592 -149.875)"/><path class="e" d="M291.76,350.02V565.138a5.676,5.676,0,0,0,5.666,5.666H618.855a5.676,5.676,0,0,0,5.666-5.666V350.02a5.678,5.678,0,0,0-5.665-5.678H297.426A5.678,5.678,0,0,0,291.76,350.02Z" transform="translate(-191.434 -148.75)"/><path class="d" d="M342.52,614.787a3.473,3.473,0,0,0,2.733,1.307H536.482a3.519,3.519,0,0,0,3.44-4.241l-2.968-14.1a3.525,3.525,0,0,0-2.191-2.556,3.411,3.411,0,0,0-1.249-.236h-185.3a3.409,3.409,0,0,0-1.249.236,3.525,3.525,0,0,0-2.191,2.556l-2.968,14.1A3.516,3.516,0,0,0,342.52,614.787Z" transform="translate(-198.635 -114.985)"/><path class="b" d="M606.2,369.86H305.442a1.2,1.2,0,1,1,0-2.392H606.2a1.2,1.2,0,1,1,0,2.392Z" transform="translate(-189.212 -140.417)"/><ellipse class="b" cx="7.009" cy="7.166" rx="7.009" ry="7.166" transform="translate(129.694 207.491)"/><ellipse class="b" cx="7.009" cy="7.166" rx="7.009" ry="7.166" transform="translate(153.908 207.491)"/><ellipse class="b" cx="7.009" cy="7.166" rx="7.009" ry="7.166" transform="translate(163.748 207.491)"/><path class="b" d="M551,351.622H533.8a1.3,1.3,0,0,0,0,2.6H551a1.3,1.3,0,1,0,0-2.6Z" transform="translate(-179.766 -142.246)"/><path class="b" d="M551,355.772H533.8a1.3,1.3,0,1,0,0,2.6H551a1.3,1.3,0,1,0,0-2.6Z" transform="translate(-179.769 -141.768)"/><path class="b" d="M551,359.922H533.8a1.3,1.3,0,0,0,0,2.6H551a1.3,1.3,0,1,0,0-2.6Z" transform="translate(-179.766 -141.29)"/><path class="d" d="M901.5,615.91a7.558,7.558,0,0,0,7.283,5.1l31.206-.8a7.455,7.455,0,0,0,7.045-5.486l4.416-47.221a11.536,11.536,0,0,0,4.992,1.026,11.381,11.381,0,0,0-.571-22.754,9.638,9.638,0,0,0-2.045.213,7.713,7.713,0,0,0-5.741-2.477l-48,1.24a6.9,6.9,0,0,0-1.184.147,7.5,7.5,0,0,0-5.74,9.735ZM952.36,564.3l3.142-11.253a7.665,7.665,0,0,0,.024-3.975c.153,0,.287-.073.44-.073a8.14,8.14,0,1,1,.381,16.276,7.662,7.662,0,0,1-3.987-.974Z" transform="translate(-158.138 -123.136)"/><path class="b" d="M897.978,544.9c1.023,5.847,12.521,9.958,26.346,9.244,12.713-.586,23.109-5.05,25.013-10.341a7.1,7.1,0,0,0-2.173-.29l-48,1.24A6.891,6.891,0,0,0,897.978,544.9Z" transform="translate(-157.213 -120.435)"/><path class="c" d="M922.645,584.486a.586.586,0,0,0,.178-.078l6.777-4.436a.588.588,0,0,0,0-.985l-7.044-4.614a.589.589,0,0,0-.646.985l6.291,4.121-6.024,3.944a.589.589,0,0,0,.467,1.064Z" transform="translate(-153.001 -116.896)"/><path class="c" d="M914.58,584.905a.589.589,0,0,0,.149-1.082l-6.247-3.581,6.038-4.485a.588.588,0,1,0-.7-.945l-6.76,5.021a.588.588,0,0,0,.058.983l7.027,4.028A.588.588,0,0,0,914.58,584.905Z" transform="translate(-155.639 -116.848)"/><path class="c" d="M923.484,588.805a.564.564,0,0,0,.161-.068.589.589,0,0,0,.2-.809l-9.607-15.794a.589.589,0,0,0-1.006.613l9.607,15.794A.589.589,0,0,0,923.484,588.805Z" transform="translate(-154.514 -117.44)"/><rect class="c" width="59.745" height="12.776" rx="3.264" transform="translate(225.694 290.618)"/><rect class="g" width="120.429" height="12.776" rx="3.264" transform="translate(196.546 314.787)"/><rect class="g" width="120.429" height="12.776" rx="3.264" transform="translate(196.546 338.956)"/><path class="b" d="M497.3,550.6l.255.806.013.027,7.686,23.368,8.842,26.929,16.636,50.607.161,7.861v.027l1.236,63.238-3.427,8.573,3.857,14.056s-1.774-21.247-11.288-9.045c-5.388,6.934-11.691,14.029-16.864,20.681q11.308,4.576,22.979,8.278c1.68.538,3.373,1.048,5.066,1.559l1.088.322a314.349,314.349,0,0,0,79.336,12.753c1.4.04,2.768.067,4.1.094.47.013.927.027,1.384.027,1.505.013,3,.027,4.5.027q4.555,0,9.07-.134a314.337,314.337,0,0,0,66.073-8.936c-.148-8.936-.551-19.377-1.129-30.53-.269-5.469-6.3-11.4-6.665-17.12-.255-4.3,5.16-8.345,4.878-12.712-1.828-26.889-4.112-16.567-5.805-35.608q-.262-2.8-.484-5.362c-1.088-12.228-1.841-19.874-1.841-19.874l7.229-45.567L705.545,533.4l-.873-1.438-.981-.484L643.8,501.838l-3.252-8.331a12.933,12.933,0,0,0-11.946-8.184l-39.453-.161a12.876,12.876,0,0,0-10.495,5.335L567.97,505.291Z" transform="translate(-189.958 -142.48)"/><path class="b" d="M546.062,634.153l-8.937,19.122-6.1,13.061L520.53,721.283l-5.254,5.577-4.5-19.742-47.116,10.461c-1.545-8.587-.414.291-1.368-9.129.269-.269.551-.537.833-.806.753-.7,1.384-1.357,1.371-1.989-.538-32.492,1.075-87.789,14.54-121.289a70.742,70.742,0,0,1,8.278-15.44c.269-.363.524-.726.779-1.088,6.208-8.694,10.132-17.254,15.7-23.341v-.013a.627.627,0,0,0,.094-.094.185.185,0,0,0,.054-.04l38.217-20.264,1.639,46.064,1.169,33.111Z" transform="translate(-187.403 -135.553)"/><path class="b" d="M650.391,639.513,661.553,663.4l3.9,8.317,10.492,54.942,5.237,5.563,4.512-19.737,2.12-.435,38.235-7.919,11.144,35.393a21.184,21.184,0,0,0-3.842-26.511c-.761-.689-1.4-1.359-1.377-1.993.634-38.217-1.7-108-22.814-136.721-6.7-9.115-10.727-18.193-16.58-24.535-.018-.018-.018-.036-.036-.036L678.3,526.4l-.87-1.432-.979-.489Z" transform="translate(-173.619 -135.482)"/><circle class="f" cx="52.488" cy="52.488" r="52.488" transform="translate(366.582 245.773)"/><path class="d" d="M672.847,406.105a4.429,4.429,0,0,0-3.169-1.4l.789-2.191a4.156,4.156,0,0,0-4.665-5.536l-2.874.554.271-1.92a4.163,4.163,0,0,0-5.572-4.5,4.436,4.436,0,0,1-3.817-.271,4.531,4.531,0,0,1-2.262-3.075l-1-4.83-.106-.259c-4.877-8.128-14.253-14.041-25.727-16.209-10.213-1.944-20.685-.954-30.78-.024-4.005.377-8.528.8-12.3,3.11-3.2,1.979-5.913,5.937-5.36,9.93-9.954-3.051-20.626,3.039-25.915,10.719-6.267,9.141-7.292,20.591-7.456,29.543-.448,21.18,3.923,38.507,12.958,51.512.66.942.825,2.91,2.132,3.569l-.271-.436c1.461.73,2.945,1.908,2.391,3.169-1.59,3.628,8.976,11.65,16.421,14.3,13.582,4.841,31.64,4.429,44.338,2.686l.448-3c4.582-.624,7.81-1.814,8.717-3.675,1.6-1.366,2.969-2.591,4.158-3.722l.012-.012c.024-.023.071-.059.094-.082,5.737-5.5,7.068-8.634,7.669-13.405.577-4.676-.448-9.424-1.5-13.7,22.075,3.416-8.693-23.512,11.874-28.719a6.4,6.4,0,0,1,.719-.177c.6-.141,1.2-.283,1.779-.448a31.155,31.155,0,0,0,7.916-3.381c5.748-3.5,7.645-8.14,10.613-13.37a4.036,4.036,0,0,0-.53-4.747Z" transform="translate(-183.412 -143.638)"/><path class="d" d="M802.8,636.746c-.012,2.061-.035,4.947-.13,8.517q-.018.742-.035,1.52c-.153,6.561-.306,12.062-.554,18.176-.012.424-.024.836-.047,1.26-.33,8.528-.848,18.458-1.743,34.184-1.661,29.048-4.559,3.993-7.468,14.183-.141.507-.294,1.107-.436,1.814a32.886,32.886,0,0,1-2.215,7.456c-1.543.919-3.133,1.8-4.7,2.686-4.464,2.485-9,4.877-13.57,7.15-2.568,1.272-5.148,2.521-7.739,3.722-.412.188-.813.377-1.213.554a319.111,319.111,0,0,1-40.934,15.62c-2.733.825-5.454,1.626-8.21,2.368-2.874.8-5.748,1.555-8.658,2.262a314.38,314.38,0,0,1-66.072,8.941c-3,.094-6.031.13-9.07.13-1.508,0-2.992-.012-4.5-.024-.459,0-.919-.012-1.378-.024-1.331-.035-2.709-.059-4.1-.094a314.119,314.119,0,0,1-79.335-12.757l-1.1-.318c-1.7-.518-3.381-1.025-5.065-1.567q-11.662-3.693-22.982-8.269-8.64-3.481-17.08-7.468a.4.4,0,0,1-.141-.071c-1.178-.542-2.368-1.107-3.546-1.685-.153-.082-.318-.165-.483-.247q-6.591-3.216-13.04-6.738c-3.616-8.3-8.705-9.895-11.862-17.2a30.478,30.478,0,0,1-1.979-6.761c0-.024-.012-.047-.012-.082.33,4.382-1.4-7.774-.012-.047-.012-.141-.024-.294-.035-.471-.035-.424-.082-.942-.153-1.59-4.04-39.45-3.781-84.565-5.536-121.742q-.177-3.6-.365-6.9c-.035-.73-.082-1.449-.13-2.156.082-.212.177-.436.283-.648a1.174,1.174,0,0,1,.082-.177,1.927,1.927,0,0,1,.118-.212c.024-.035.059-.082.082-.118a1.06,1.06,0,0,1,.059-.118c.106-.165.224-.342.353-.506.059-.071.106-.13.165-.188a.949.949,0,0,1,.141-.165.75.75,0,0,1,.13-.153c.047-.047.094-.106.153-.165a.357.357,0,0,1,.094-.094,2.388,2.388,0,0,1,.306-.294,11.333,11.333,0,0,1,1.343-1.06c.165-.106.342-.212.507-.33a22.535,22.535,0,0,1,3.734-1.791c.448-.165.9-.318,1.378-.483.177-.047.342-.106.518-.165.259-.082.518-.165.789-.224,1.343-.4,2.792-.742,4.358-1.06.188-.035.389-.071.589-.118.283-.059.577-.106.872-.153.4-.071.813-.141,1.225-.212,3.5-.554,7.468-.966,11.85-1.237l1.237-.071,1.461-.071c.412-.024.836-.035,1.26-.047s.836-.035,1.272-.047c1.19-.035,2.415-.071,3.663-.094,3.557-.071,7.3-.047,11.238.035,1.826.047,3.687.094,5.6.177.13,0,.247.012.365.012,1.661.059,3.334.13,5.053.224,1.2.059,2.415.118,3.628.188,1.143.071,2.3.141,3.463.224.907.047,1.814.118,2.733.177.777.059,1.555.118,2.332.165l1.06.071c.577.047,1.154.082,1.743.141,1.3.106,2.592.212,3.911.318s2.639.236,3.97.353,2.674.247,4.017.377l.4.035c1.225.13,2.45.247,3.687.377.283.024.577.047.86.082,1.179.118,2.382.257,3.572.384l1.095.118c.932.1,1.851.19,2.79.3,1.237.141,2.5.271,3.722.436.954.106,1.908.212,2.862.33,1.5.177,3.016.365,4.535.565.577.071,1.154.141,1.732.224,4.335.542,8.717,1.143,13.17,1.767,6.75.954,13.605,1.991,20.508,3.11s13.869,2.3,20.862,3.546c1.767.318,3.534.636,5.313.966l2.4.459c1.366.247,2.733.507,4.1.766s2.733.518,4.1.789l4.888.954c10.708,2.12,21.356,4.382,31.746,6.75,1.708.389,3.416.789,5.112,1.178q5.089,1.184,10.083,2.4c.919.212,1.826.436,2.733.66,2.262.565,4.523,1.131,6.75,1.708l.389.106c1.637.4,3.239.813,4.841,1.237q5.672,1.484,11.155,3,3.64,1.007,7.2,2.038c3.546,1.025,7.021,2.061,10.4,3.11.836.259,1.673.518,2.5.766,2.474.766,4.912,1.543,7.28,2.321,1.885.613,3.722,1.237,5.536,1.861s3.593,1.249,5.336,1.873c1.119.4,2.226.825,3.334,1.225,1.59.589,3.157,1.178,4.688,1.767.471.177.931.365,1.39.542.294.13.577.236.86.353.554.224,1.119.436,1.661.66s1.1.436,1.637.671c.53.212,1.072.436,1.59.66s1.048.436,1.567.671c.436.177.86.365,1.272.554.836.365,1.673.73,2.485,1.107.4.188.8.365,1.2.554l.919.424c.13.071.259.13.389.188.294.141.6.294.9.436.683.318,1.355.66,2.014.978.883.448,1.743.9,2.568,1.331s1.649.9,2.427,1.331c.13.071.247.141.377.212.177.094.353.2.53.294.6.342,1.178.7,1.755,1.037,1.131.7,2.2,1.378,3.2,2.061.224.153.436.306.66.448.742.53,1.449,1.048,2.109,1.578,0,.012,0,.012.012.012.224.165.436.342.648.507.177.165.365.306.542.471.613.53,1.178,1.037,1.7,1.555a6.678,6.678,0,0,1,.495.506,1.425,1.425,0,0,1,.189.188c.236.236.448.471.648.707a.652.652,0,0,1,.082.106c.283.33.542.66.789.989.118.165.247.33.353.495.141.2.283.412.4.613.106.165.2.342.294.507a8.551,8.551,0,0,1,.636,1.331,6.162,6.162,0,0,1,.318.966,6.9,6.9,0,0,1,.2.954Z" transform="translate(-199.406 -128.978)"/><path class="h" d="M802.8,636.745c-.012,2.061-.035,4.947-.13,8.517-.012.495-.035,1-.047,1.52-.118,5.006-.294,11.191-.542,18.176-.012.424-.024.836-.047,1.26-.33,8.528-.848,18.458-1.743,34.184-1.661,29.048-4.559,3.993-7.468,14.183-8.081-4.971-16.939-10.178-26.41-15.525q-2.562-1.449-5.171-2.909c-18.942-10.566-40.1-21.639-62.184-32.606-.872-.436-1.755-.872-2.627-1.3-50.593-25.008-105.816-49.333-150.554-65.565-8.634-3.133-16.88-5.96-24.631-8.446-16.327-5.218-30.438-8.87-41.3-10.448-11.308-1.649-19.118-1.06-22.275,2.344q-.177-3.6-.365-6.9-.071-1.1-.141-2.156c.073-.194.167-.379.259-.566.013-.027.022-.055.036-.082a1.177,1.177,0,0,1,.082-.177,1.921,1.921,0,0,1,.118-.212,1.253,1.253,0,0,1,.141-.236c.106-.165.224-.342.353-.507a4.1,4.1,0,0,1,.306-.353.75.75,0,0,1,.13-.153c.047-.047.094-.106.153-.165a.354.354,0,0,1,.094-.094,2.392,2.392,0,0,1,.306-.295,11.351,11.351,0,0,1,1.343-1.06c.165-.106.342-.212.507-.33a22.533,22.533,0,0,1,3.734-1.791c.448-.165.9-.318,1.378-.483.177-.047.342-.106.518-.165.259-.082.518-.165.789-.224,1.343-.4,2.792-.742,4.358-1.06.471-.094.966-.188,1.461-.271.4-.071.813-.141,1.225-.212,3.5-.554,7.468-.966,11.85-1.237l1.237-.071,1.461-.071c.412-.024.836-.035,1.26-.047s.836-.035,1.272-.047c1.19-.035,2.415-.071,3.663-.094,3.557-.059,7.3-.035,11.238.047,1.826.035,3.687.094,5.6.177.118,0,.247.012.365.012,1.661.047,3.345.13,5.053.212,1.2.059,2.415.118,3.628.188,1.143.071,2.3.141,3.463.224.907.047,1.814.118,2.733.177.777.059,1.555.118,2.332.165l2.8.212c1.3.106,2.591.212,3.911.318s2.639.236,3.97.353,2.674.247,4.017.377l.4.035c1.225.13,2.45.247,3.687.377q10.284,1.043,21.168,2.438,6.5.83,13.17,1.779c6.75.954,13.605,1.991,20.508,3.1s13.869,2.3,20.862,3.546c1.767.318,3.534.636,5.313.966q3.251.6,6.5,1.225c1.366.259,2.733.518,4.1.789l4.889.954c10.708,2.12,21.356,4.382,31.746,6.75,1.708.389,3.416.789,5.112,1.178q5.089,1.184,10.083,2.4c.919.224,1.826.448,2.733.671q3.41.848,6.75,1.7v.012c.13.024.259.059.389.094,1.626.412,3.239.825,4.841,1.249q5.672,1.484,11.155,2.992c2.427.683,4.83,1.355,7.2,2.038,3.546,1.037,7.021,2.073,10.4,3.11.836.259,1.673.518,2.5.766q3.711,1.166,7.28,2.32c1.885.613,3.722,1.237,5.536,1.861s3.593,1.249,5.336,1.873c1.131.4,2.238.813,3.334,1.213,1.6.589,3.157,1.178,4.688,1.779.471.177.931.365,1.39.542.86.33,1.7.671,2.521,1.013.554.212,1.1.436,1.637.671.53.212,1.072.436,1.59.66s1.048.436,1.567.671c.436.177.86.365,1.272.554.836.365,1.673.73,2.485,1.107.4.188.8.365,1.2.554l.919.424c.13.071.259.13.389.188,1,.471,1.967.942,2.91,1.414.883.448,1.743.9,2.568,1.331.978.518,1.908,1.025,2.8,1.543.177.094.353.2.53.294.6.342,1.178.7,1.755,1.037,1.131.7,2.2,1.378,3.2,2.061s1.908,1.355,2.768,2.026c0,.012,0,.012.012.012.412.33.813.66,1.19.978.613.53,1.178,1.036,1.7,1.555a6.678,6.678,0,0,1,.495.506,1.416,1.416,0,0,1,.188.188c.247.271.495.542.73.813.283.33.542.66.789.99.118.165.247.33.353.495.141.2.283.412.4.613.106.165.2.342.294.507a8.56,8.56,0,0,1,.636,1.331,7.124,7.124,0,0,1,.318.966,6.883,6.883,0,0,1,.2.954Z" transform="translate(-199.407 -128.977)"/></g></svg>