<svg xmlns="http://www.w3.org/2000/svg" width="873.01" height="791.729" viewBox="0 0 873.01 791.729"><defs><style>.a{fill:#f2f2f2;}.b{fill:#fff;}.c{fill:#3f3d56;}.d{fill:#ffb6b6;}.e{fill:#2f2e41;}.f{fill:#e4e4e4;}.g{fill:#6c63ff;}.h{opacity:0.1;}</style></defs><g transform="translate(0)"><path class="a" d="M801.685,385.366c-1.843,1.266-3.65,2.553-5.453,3.878A476.056,476.056,0,0,0,770.1,545.654q-.01,9.235.4,18.423a462.252,462.252,0,0,0,26,134.682q1.212,3.423,2.468,6.816c.6,1.623,1.211,3.262,1.865,4.87.655.81,1.3,1.6,1.945,2.4.045.034.085.093.13.128.26.321.52.642.755.957,1.115,1.362,2.245,2.715,3.359,4.077l-.882.1-2.211.242.01.014c.744-.049,1.5-.109,2.251-.182.273-.011.57-.019.848-.055.248-.016.511-.043.759-.059,31.934-2.32,64.583-5.4,93.083-19.8,29.831-15.082,54.317-45.871,51.487-79.167a59.929,59.929,0,0,0-2.564-12.838c-.552-1.743-1.187-3.451-1.863-5.153A63.1,63.1,0,0,0,838.9,586.231c7.168-34.7,43.839-53.9,77.1-66.079,33.287-12.171,70.777-25.023,86.625-56.712,8.851-17.636,8.172-37.684,1.044-55.9-.217-.544-.443-1.1-.685-1.653a92.073,92.073,0,0,0-46.643-48.335c-39.462-17.353-86.05-8.478-124.817,10.375a228.229,228.229,0,0,0-29.837,17.439Z" transform="translate(-136.127 -70.508)"/><path class="b" d="M918.4,567.377a142.069,142.069,0,0,0-80.045,39.294A145.381,145.381,0,0,0,800,673.334c-.383,1.446-.727,2.887-1.045,4.333-.833-1.424-1.645-2.882-2.448-4.326-.517-.924-1.043-1.864-1.545-2.8.6,1.623,1.211,3.262,1.865,4.87.655.81,1.3,1.6,1.945,2.4.045.034.085.093.13.128.26.321.52.642.755.957,1.115,1.362,2.245,2.715,3.359,4.077l-.882.1-2.211.242.01.014c.744-.049,1.5-.109,2.251-.182.273-.011.57-.019.848-.055.072-.436.169-.869.265-1.3A137.27,137.27,0,0,1,945.8,571.226c-.552-1.743-1.187-3.451-1.863-5.153A146.851,146.851,0,0,0,918.4,567.377Z" transform="translate(-132.126 -35.476)"/><path class="b" d="M815.843,472.2a156.307,156.307,0,0,0-30.515,33.655,129.692,129.692,0,0,0-11.273,21.3c-1.467,3.451-2.785,7-3.954,10.571q-.01,9.235.4,18.423a133.964,133.964,0,0,1,3.5-13.868c.729-2.5,1.552-4.956,2.435-7.386,9.907-27.222,29.1-49.233,52.136-66.352,24.687-18.319,52.812-32.507,81.474-43.409a384.72,384.72,0,0,1,91.221-22.559,2.759,2.759,0,0,0,2.4-2.962,2.374,2.374,0,0,0-.685-1.653,1.971,1.971,0,0,0-1.714-.461c-3.852.465-7.693.946-11.53,1.53a389.285,389.285,0,0,0-92.907,25.943C868.086,436.973,839.788,452.119,815.843,472.2Z" transform="translate(-136.127 -62.588)"/><circle class="a" cx="10.732" cy="10.732" r="10.732" transform="translate(820.703 233.178)"/><path class="c" d="M804.262,898.407H539.67a59.9,59.9,0,0,1-59.832-59.832V168.832A59.9,59.9,0,0,1,539.67,109H804.262a59.9,59.9,0,0,1,59.832,59.832V838.576A59.9,59.9,0,0,1,804.262,898.407Z" transform="translate(-182.828 -109)"/><path class="b" d="M799.05,125H769.6a9.924,9.924,0,0,0-9.914,9.914,20.289,20.289,0,0,1-20.269,20.269H595.37A20.289,20.289,0,0,1,575.1,134.914,9.924,9.924,0,0,0,565.186,125H539.217a45.437,45.437,0,0,0-45.379,45.379V835.362a45.437,45.437,0,0,0,45.379,45.379H799.05a45.437,45.437,0,0,0,45.379-45.379V170.379A45.437,45.437,0,0,0,799.049,125Z" transform="translate(-180.576 -106.426)"/><path class="b" d="M686.254,137.3H604.991a2.9,2.9,0,0,1,0-5.8h81.263a2.9,2.9,0,0,1,0,5.8Z" transform="translate(-163.159 -105.38)"/><circle class="b" cx="2.322" cy="2.322" r="2.322" transform="translate(533.542 26.701)"/><path class="c" d="M813.563,352.107a5.23,5.23,0,0,1-5.224-5.224V244.724a5.224,5.224,0,0,1,10.448,0V346.883a5.23,5.23,0,0,1-5.224,5.224Z" transform="translate(-129.975 -88.003)"/><path class="c" d="M480.562,276.166a5.23,5.23,0,0,1-5.224-5.224V247.724a5.224,5.224,0,1,1,10.448,0v23.218A5.23,5.23,0,0,1,480.562,276.166Z" transform="translate(-183.552 -87.521)"/><path class="c" d="M480.562,313.166a5.23,5.23,0,0,1-5.224-5.224V284.724a5.224,5.224,0,1,1,10.448,0v23.218a5.23,5.23,0,0,1-5.224,5.224Z" transform="translate(-183.552 -81.568)"/><path class="c" d="M999.468,791.322H225.153a1.161,1.161,0,0,1,0-2.322H999.468a1.161,1.161,0,0,1,0,2.322Z" transform="translate(-223.992 0.407)"/><path class="d" d="M62.649,677.507H76.882l6.77-54.9H62.647Z" transform="translate(10.079 100.174)"/><path class="e" d="M283.514,774.9h28.03a17.863,17.863,0,0,1,17.862,17.861v.581l-45.891,0Z" transform="translate(-214.415 -1.862)"/><path class="d" d="M175.649,677.507h14.233l6.77-54.9H175.647Z" transform="translate(28.26 100.174)"/><path class="e" d="M396.514,774.9h28.03a17.863,17.863,0,0,1,17.862,17.861v.581l-45.891,0Z" transform="translate(-196.234 -1.862)"/><path class="d" d="M171.787,290l9.287,59.206-88.228,1.161,11.609-56.884Z" transform="translate(14.938 46.659)"/><path class="e" d="M413.938,437,436,512.458l3.483,310.077h-23.8L358.8,573.4l-52.24,242.627H283.338l16.253-272.81s-8.126-67.332,19.735-87.067V438.838Z" transform="translate(-214.444 -56.227)"/><path class="d" d="M289.884,508.872a17.416,17.416,0,0,0,11.159-24.263l37.534-122.367-27.607-5.473L276.642,476.715a17.511,17.511,0,0,0,13.243,32.157Z" transform="translate(-216.966 -69.136)"/><circle class="d" cx="39.819" cy="39.819" r="39.819" transform="translate(93.171 186.399) rotate(-45)"/><path class="f" d="M331.043,444.386a7.282,7.282,0,0,1-5.845-6.611c-.876-11.99-5.207-32.827-12.872-61.935a48.25,48.25,0,0,1,39.83-60.017h0a48.229,48.229,0,0,1,54.817,42.187c3.793,33.4-3.361,66.955-6.613,79.83a7.313,7.313,0,0,1-6.933,5.51l-60.817,1.174A7.258,7.258,0,0,1,331.043,444.386Z" transform="translate(-210.034 -75.804)"/><path class="d" d="M491.614,335.96a17.069,17.069,0,0,0-.9,2.533L414.59,364.361,399.88,351.51l-22.3,19.665,23.83,25.28a12.97,12.97,0,0,0,15.337,2.654l81.46-41.609a17.018,17.018,0,1,0-6.6-21.54Z" transform="translate(-199.28 -74.09)"/><path class="f" d="M415.976,366.048l-27.751,24.238a7.3,7.3,0,0,1-10.938-1.552l-19.85-30.91a20.261,20.261,0,0,1,30.6-26.567L415.91,355a7.3,7.3,0,0,1,.067,11.047Z" transform="translate(-203.32 -74.363)"/><path class="f" d="M330.366,397.973,296.07,384.5a7.3,7.3,0,0,1-3.659-10.424l18.3-31.853a20.261,20.261,0,1,1,37.672,14.927l-8.241,35.677a7.3,7.3,0,0,1-9.775,5.146Z" transform="translate(-213.14 -73.536)"/><path class="e" d="M390.738,269.546c8.677,8.861,20.458,18.537,32.162,13.252,7.685-3.47,11.57-11.946,10.387-20.294-2.127-15.013-14.39-23.868-26.35-31.163-15.548-9.483-32.835-18-51.02-17.023s-36.806,14.707-37.168,32.915c-.291,14.642,10.718,29.056,6,42.921-4.747,13.954-22.36,18.3-37.1,18.044s-30.823-2.593-43.075,5.6c-15.63,10.452-16.992,34.4-7.446,50.6s26.833,26.111,43.941,33.911c22.668,10.335,47.8,18.387,72.24,13.537s46.99-26.475,45.114-51.317c-.792-10.493-5.637-20.189-10.307-29.619s-9.345-19.25-9.755-29.765c-.342-8.763,3.064-18.182,9.856-23.358a7.193,7.193,0,0,0,2.58-8.06Z" transform="translate(-222.845 -92.067)"/><path class="b" d="M799.18,446.122c-12.559,7.532-34.933,16.969-57.8,7.27l-14.78-6.27,29.618-33.2a141.454,141.454,0,1,1,42.959,32.2Z" transform="translate(-144.261 -97.989)"/><path class="g" d="M799.475,448.13c-12.067,7.085-35.055,16.876-58.491,6.934l-16.808-7.13,30.144-33.791a143.032,143.032,0,1,1,202.988,10.915h0A142.4,142.4,0,0,1,799.476,448.13ZM964.827,225.141A139.875,139.875,0,0,0,757.609,413.079l.954,1.052-29.1,32.617,12.752,5.409c22.635,9.6,45.033-.372,56.369-7.171l.733-.44.769.374A139.875,139.875,0,0,0,964.828,225.141Z" transform="translate(-144.48 -98.208)"/><path class="h" d="M960.707,316.568a130.177,130.177,0,0,0-118.66-129.661c3.784-.333,7.62-.513,11.5-.513a130.173,130.173,0,1,1,0,260.346c-3.872,0-7.7-.183-11.487-.514a130.179,130.179,0,0,0,118.65-129.659Z" transform="translate(-124.551 -96.548)"/><rect class="g" width="93.016" height="8.638" transform="translate(642.092 194.063)"/><rect class="g" width="162.119" height="8.638" transform="translate(642.092 223.944)"/><rect class="g" width="161.96" height="8.638" transform="translate(642.092 253.825)"/><path class="b" d="M539.79,620.284a90.226,90.226,0,1,1,127.448-6.219l18.892,21.178-9.427,4c-14.584,6.186-28.856.167-36.866-4.637A90.226,90.226,0,0,1,539.79,620.283Z" transform="translate(-177.947 -52.008)"/><path class="g" d="M600.426,644.9a90.891,90.891,0,0,1-61.174-23.732h0a91.233,91.233,0,1,1,129.476-6.962l19.227,21.553-10.721,4.548c-14.949,6.342-29.611.1-37.308-4.423A91.354,91.354,0,0,1,600.426,644.9Zm-59.821-25.224a88.811,88.811,0,0,0,98.929,14.16l.49-.238.468.281c7.231,4.337,21.518,10.7,35.955,4.574l8.134-3.45-18.559-20.8.608-.671a89.219,89.219,0,1,0-126.025,6.149Z" transform="translate(-178.086 -52.147)"/><path class="h" d="M524.32,551.969a83.033,83.033,0,0,1,75.687-82.7c-2.413-.212-4.86-.327-7.333-.327a83.031,83.031,0,0,0,0,166.061c2.47,0,4.912-.116,7.327-.328a83.034,83.034,0,0,1-75.68-82.7Z" transform="translate(-178.033 -51.088)"/><rect class="g" width="59.33" height="5.51" transform="translate(410.74 484.323)"/><rect class="g" width="103.407" height="5.51" transform="translate(366.663 503.383)"/><rect class="g" width="103.306" height="5.51" transform="translate(366.764 522.442)"/><circle class="g" cx="12.77" cy="12.77" r="12.77" transform="translate(525.135 578.28)"/><circle class="g" cx="15.092" cy="15.092" r="15.092" transform="translate(541.387 337.975)"/></g></svg>