<svg xmlns="http://www.w3.org/2000/svg" width="811.711" height="780.309" viewBox="0 0 811.711 780.309"><defs><style>.a{fill:#f0f0f0;}.b{fill:#fff;}.c{fill:#e4e4e4;}.d{fill:#6c63ff;}.e{fill:#3f3d56;}.f{fill:#cacaca;}.g{fill:#ffb6b6;}.h{fill:#2f2e41;}</style></defs><g transform="translate(0)"><path class="a" d="M779.34,472.622c28.994-16.957,67.63-20.5,95.558-1.841a154.756,154.756,0,0,0-84.391,64.555c-7.528,11.907-14.66,25.934-28.029,30.375-8.318,2.763-17.6,1.06-25.5-2.742s-14.67-9.545-21.345-15.226l-2.132-.492C729.632,517.79,750.346,489.579,779.34,472.622Z" transform="translate(-165.836 -57.783)"/><path class="b" d="M874.471,469.158a132.275,132.275,0,0,0-79.109,19.107,56.964,56.964,0,0,0-13.773,11.35,32.671,32.671,0,0,0-7.1,15.66c-.971,5.354-1.345,10.942-3.6,15.966a20,20,0,0,1-12.378,10.7c-6.676,2.194-13.743,1.857-20.642,1.289-7.66-.632-15.606-1.409-22.94,1.442-.889.345-1.373-1.054-.485-1.4,12.76-4.96,26.447.641,39.552-1.718,6.115-1.1,11.935-4.052,14.951-9.711,2.637-4.949,3.027-10.711,3.964-16.14a34.862,34.862,0,0,1,6.372-15.571,52.661,52.661,0,0,1,13.286-11.838,128.334,128.334,0,0,1,36.671-16.248,134.622,134.622,0,0,1,45.519-4.34c.947.072.654,1.524-.287,1.453Z" transform="translate(-165.719 -55.526)"/><path class="b" d="M785.341,484.922a19.845,19.845,0,0,1,7.335-24.629c.8-.517,1.641.7.84,1.22a18.376,18.376,0,0,0-6.777,22.924c.388.87-1.013,1.35-1.4.485Z" transform="translate(-148.339 -57.31)"/><path class="b" d="M762.73,503.489a38.251,38.251,0,0,0,27.875.184c.89-.342,1.374,1.057.485,1.4a39.786,39.786,0,0,1-29.006-.251C761.2,504.465,761.85,503.135,762.73,503.489Z" transform="translate(-153.824 -46.52)"/><path class="b" d="M818.149,469.529a11.234,11.234,0,0,0,6.9,8.128c.89.345.238,1.675-.646,1.332a12.588,12.588,0,0,1-7.649-8.974.765.765,0,0,1,.457-.942.744.744,0,0,1,.942.456Z" transform="translate(-140.094 -55.099)"/><path class="a" d="M886.861,570.2c-.562-.2-1.123-.4-1.7-.591a147.942,147.942,0,0,0-23.222-6.053c-.609-.117-1.227-.226-1.838-.325a155.958,155.958,0,0,0-57.406,1.264,151.447,151.447,0,0,0-22.09,6.451c-9.928,3.739-20.4,8.584-30.676,8.818a25.983,25.983,0,0,1-3.215-.09l-33.268-43.5c-.026-.137-.062-.267-.089-.4l-1.408-1.676c.361-.166.739-.329,1.1-.495.209-.1.425-.184.634-.281.142-.062.284-.123.408-.186.047-.021.095-.041.132-.054.124-.064.247-.109.361-.166q3.165-1.383,6.361-2.726c.01-.008.01-.008.027-.005,16.252-6.783,33.213-12.268,50.467-15,.519-.082,1.048-.172,1.582-.235a144.526,144.526,0,0,1,23.527-1.651,127.766,127.766,0,0,1,12.9.845,106.246,106.246,0,0,1,31.971,9.019c20.169,9.3,37.139,24.949,44.86,45.47C886.484,569.147,886.674,569.663,886.861,570.2Z" transform="translate(-166.222 -44.064)"/><path class="b" d="M886.048,566.52a132.276,132.276,0,0,0-74.667-32.373,56.959,56.959,0,0,0-17.831.77,32.672,32.672,0,0,0-15.1,8.229c-4,3.69-7.662,7.927-12.488,10.581a20,20,0,0,1-16.324,1.089c-6.651-2.268-12.091-6.791-17.257-11.4-5.736-5.116-11.612-10.521-19.185-12.661-.917-.259-.462-1.668.455-1.409,13.175,3.723,20.731,16.435,32.615,22.441,5.545,2.8,11.969,3.951,17.784,1.248,5.085-2.363,8.866-6.73,12.882-10.5a34.861,34.861,0,0,1,14.462-8.6,52.661,52.661,0,0,1,17.735-1.453,128.332,128.332,0,0,1,39.062,9.105,134.624,134.624,0,0,1,38.957,23.941c.713.628-.4,1.611-1.1.987Z" transform="translate(-166.036 -40.064)"/><path class="b" d="M798.858,536.505a19.845,19.845,0,0,1,20.685-15.248.741.741,0,0,1-.064,1.479,18.376,18.376,0,0,0-19.212,14.223c-.214.928-1.622.468-1.409-.455Z" transform="translate(-144.553 -42.085)"/><path class="b" d="M767.038,538.748a38.251,38.251,0,0,0,22.146,16.93c.917.263.461,1.671-.454,1.409a39.786,39.786,0,0,1-23.009-17.664c-.493-.818.828-1.488,1.318-.675Z" transform="translate(-152.839 -37.803)"/><path class="b" d="M831.95,545a11.234,11.234,0,0,0,.613,10.642c.5.811-.818,1.48-1.318.675a12.588,12.588,0,0,1-.7-11.771.765.765,0,0,1,.932-.477A.744.744,0,0,1,831.95,545Z" transform="translate(-136.928 -36.391)"/><path class="a" d="M314.478,697.823c3.4-33.416,23.322-66.71,54.861-78.262a154.756,154.756,0,0,0,2.375,106.224c5.178,13.1,12.3,27.133,8,40.548-2.673,8.348-9.524,14.841-17.251,18.978s-16.36,6.219-24.884,8.261L335.928,795C321.646,764.6,311.076,731.238,314.478,697.823Z" transform="translate(-265.517 -17.556)"/><path class="b" d="M365.417,620.324A132.276,132.276,0,0,0,334.2,695.482a56.963,56.963,0,0,0,1.045,17.817,32.67,32.67,0,0,0,8.461,14.968c3.751,3.941,8.044,7.538,10.772,12.323a20,20,0,0,1,1.341,16.3c-2.165,6.686-6.6,12.195-11.131,17.431-5.027,5.814-10.34,11.773-12.363,19.378-.245.921-1.66.487-1.416-.433,3.519-13.231,16.113-20.982,21.935-32.957,2.717-5.588,3.766-12.029.973-17.8-2.442-5.048-6.866-8.761-10.7-12.719a34.861,34.861,0,0,1-8.818-14.328,52.661,52.661,0,0,1-1.726-17.711,128.328,128.328,0,0,1,8.5-39.2,134.621,134.621,0,0,1,23.336-39.322c.617-.723,1.617.37,1,1.088Z" transform="translate(-261.265 -17.696)"/><path class="b" d="M336.81,677.258a19.845,19.845,0,0,1-15.566-20.447.741.741,0,0,1,1.48.041,18.376,18.376,0,0,0,14.518,18.99c.931.2.493,1.614-.433,1.416Z" transform="translate(-263.676 -8.438)"/><path class="b" d="M339.486,709.629a38.25,38.25,0,0,0,16.586-22.4c.248-.92,1.664-.487,1.416.433a39.786,39.786,0,0,1-17.307,23.279c-.81.505-1.5-.8-.7-1.307Z" transform="translate(-259.209 -0.807)"/><path class="b" d="M344.741,640.458a11.234,11.234,0,0,0,10.631-.777c.8-.515,1.493.8.7,1.307a12.588,12.588,0,0,1-11.759.886.765.765,0,0,1-.492-.924.744.744,0,0,1,.924-.492Z" transform="translate(-258.046 -12.567)"/><path class="a" d="M463.264,666.082c-.492.336-.984.672-1.477,1.02a147.929,147.929,0,0,0-18.582,15.186c-.453.423-.906.858-1.346,1.292a155.958,155.958,0,0,0-32.83,47.109,151.472,151.472,0,0,0-7.816,21.644c-2.834,10.223-5.094,21.534-10.967,29.975a25.972,25.972,0,0,1-1.968,2.543l-54.748,1.22c-.126-.06-.252-.107-.378-.167l-2.184.149c.079-.389.17-.791.249-1.18.045-.226.1-.452.147-.678.034-.151.068-.3.09-.44.011-.05.023-.1.034-.138.022-.138.057-.264.079-.389q.75-3.372,1.549-6.746c0-.013,0-.013.012-.025,4.105-17.125,9.676-34.058,17.64-49.607.24-.468.479-.948.743-1.416a144.531,144.531,0,0,1,12.541-19.975,127.768,127.768,0,0,1,8.29-9.92,106.246,106.246,0,0,1,26.137-20.5c19.405-10.805,42.05-15.284,63.176-9.418C462.195,665.768,462.725,665.919,463.264,666.082Z" transform="translate(-261.244 -6.716)"/><path class="b" d="M463.112,666.328a132.275,132.275,0,0,0-70.175,41.215,56.962,56.962,0,0,0-9.892,14.855,32.67,32.67,0,0,0-2.256,17.046c.622,5.405,1.884,10.862,1.182,16.325a20,20,0,0,1-8.746,13.826c-5.754,4.035-12.614,5.761-19.382,7.216-7.514,1.616-15.345,3.175-21.538,8.029-.75.588-1.619-.611-.87-1.2,10.775-8.445,25.5-7.052,37.356-13.108,5.533-2.826,10.249-7.337,11.495-13.627,1.09-5.5-.207-11.129-.884-16.6a34.862,34.862,0,0,1,1.585-16.749,52.659,52.659,0,0,1,9.285-15.18A128.331,128.331,0,0,1,420.659,682.2a134.621,134.621,0,0,1,42.307-17.346c.928-.206,1.068,1.269.146,1.473Z" transform="translate(-261.199 -6.264)"/><path class="b" d="M386,698.567a19.845,19.845,0,0,1-.118-25.7c.616-.727,1.774.2,1.157.924a18.376,18.376,0,0,0,.158,23.9c.623.72-.578,1.586-1.2.87Z" transform="translate(-248.71 -4.326)"/><path class="b" d="M370.5,724a38.251,38.251,0,0,0,26.732-7.9c.752-.585,1.621.613.87,1.2a39.786,39.786,0,0,1-27.834,8.167c-.951-.084-.714-1.546.232-1.462Z" transform="translate(-251.592 6.482)"/><path class="b" d="M413.706,673.823a11.233,11.233,0,0,0,8.956,5.78c.951.072.713,1.534-.232,1.462a12.588,12.588,0,0,1-9.922-6.372.765.765,0,0,1,.164-1.034A.744.744,0,0,1,413.706,673.823Z" transform="translate(-240.94 -4.098)"/><g transform="translate(70.834 0)"><path class="c" d="M715.919,228.192,421.2,199.2a24.183,24.183,0,0,1-9.679-3.16,29.33,29.33,0,0,1-8-6.847,33.024,33.024,0,0,1-7.459-20.8,30.6,30.6,0,0,1,.491-5.509,27.572,27.572,0,0,1,1.441-5.1,25.076,25.076,0,0,1,2.339-4.558,23.356,23.356,0,0,1,3.185-3.9,21.726,21.726,0,0,1,3.853-3.025,20.422,20.422,0,0,1,8.959-2.962,21.966,21.966,0,0,1,4.873.125l294.72,39.866a13.618,13.618,0,0,1,6.2,2.6,20.481,20.481,0,0,1,5.019,5.437,28.107,28.107,0,0,1,3.363,7.48,31.7,31.7,0,0,1,1.229,8.76,30.673,30.673,0,0,1-.3,4.315,27.1,27.1,0,0,1-.882,4.026,23.335,23.335,0,0,1-1.438,3.648,19.721,19.721,0,0,1-1.97,3.182,16.063,16.063,0,0,1-2.405,2.545,13.008,13.008,0,0,1-2.715,1.774,11.313,11.313,0,0,1-6.1,1.088Z" transform="translate(-315.843 -136.348)"/><path class="d" d="M584.926,215.308,421.2,199.2a24.183,24.183,0,0,1-9.679-3.16,29.33,29.33,0,0,1-8-6.847,33.024,33.024,0,0,1-7.459-20.8,30.6,30.6,0,0,1,.491-5.509,27.572,27.572,0,0,1,1.441-5.1,25.076,25.076,0,0,1,2.339-4.558,23.356,23.356,0,0,1,3.185-3.9,21.726,21.726,0,0,1,3.853-3.025,20.422,20.422,0,0,1,8.959-2.962,21.966,21.966,0,0,1,4.873.125l163.723,22.151Z" transform="translate(-315.843 -136.348)"/><path class="e" d="M547.979,215.266a4.831,4.831,0,0,1-2.124-.75,6.469,6.469,0,0,1-1.732-1.64,8.157,8.157,0,0,1-1.174-2.308,8.821,8.821,0,0,1-.432-2.726V164.3a7.9,7.9,0,0,1,.431-2.624,6.1,6.1,0,0,1,1.176-2.03,4.615,4.615,0,0,1,1.737-1.249,4.152,4.152,0,0,1,2.124-.25,5.005,5.005,0,0,1,2.111.832,6.821,6.821,0,0,1,1.717,1.712,8.5,8.5,0,0,1,1.159,2.336,8.943,8.943,0,0,1,.425,2.72v43.186a8.027,8.027,0,0,1-.425,2.624,6.373,6.373,0,0,1-1.159,2.064,4.847,4.847,0,0,1-1.722,1.306,4.2,4.2,0,0,1-2.112.335Z" transform="translate(-279.315 -132.646)"/><path class="f" d="M338.619,184.612a6.461,6.461,0,0,1-.866-.149,6.841,6.841,0,0,1-.858-.27,7.291,7.291,0,0,1-.84-.389,7.807,7.807,0,0,1-.812-.507,8.084,8.084,0,0,1-3.156-4.642,7.937,7.937,0,0,1-.231-1.905V144.059a7.289,7.289,0,0,1,.231-1.848,6.343,6.343,0,0,1,.668-1.624,5.747,5.747,0,0,1,2.489-2.28,5.883,5.883,0,0,1,1.65-.509,6.124,6.124,0,0,1,1.724-.015,6.783,6.783,0,0,1,1.72.467,7.745,7.745,0,0,1,1.639.937l26.11,19.4a7.987,7.987,0,0,1,1.274,1.184,8.076,8.076,0,0,1,1.638,3,7.978,7.978,0,0,1,.306,1.7,1.078,1.078,0,0,0,.009.137.541.541,0,0,1,0,.137v.276a7.317,7.317,0,0,1-.22,1.805,6.383,6.383,0,0,1-.637,1.591,5.806,5.806,0,0,1-1.018,1.312,5.675,5.675,0,0,1-1.352.97l-26.113,13.295a6.021,6.021,0,0,1-.806.339,5.975,5.975,0,0,1-1.689.31A6.181,6.181,0,0,1,338.619,184.612Z" transform="translate(-331.856 -137.729)"/></g><g transform="translate(70.935 181.748)"><path class="c" d="M715.958,335.191l-294.686,5.557a22.179,22.179,0,0,1-9.678-2.025,24.768,24.768,0,0,1-8.005-5.908,28.306,28.306,0,0,1-5.449-8.922,31.133,31.133,0,0,1,0-22.006,28.332,28.332,0,0,1,5.449-8.925,24.794,24.794,0,0,1,8-5.916,22.189,22.189,0,0,1,9.678-2.032l294.686,5.326a12.208,12.208,0,0,1,6.2,1.874,17.217,17.217,0,0,1,5.018,4.839,24.607,24.607,0,0,1,3.362,7.085,30.815,30.815,0,0,1,0,17.232,24.628,24.628,0,0,1-3.362,7.089,17.244,17.244,0,0,1-5.018,4.854,12.214,12.214,0,0,1-6.2,1.877Z" transform="translate(-315.926 -282.744)"/><path class="d" d="M536.452,338.577l-115.179,2.171a22.179,22.179,0,0,1-9.678-2.025,24.768,24.768,0,0,1-8.005-5.908,28.307,28.307,0,0,1-5.449-8.922,30.754,30.754,0,0,1-2.009-11,31.575,31.575,0,0,1,.491-5.566,30.192,30.192,0,0,1,1.441-5.264,28.84,28.84,0,0,1,2.339-4.831,27.678,27.678,0,0,1,3.183-4.272,25.812,25.812,0,0,1,3.853-3.482,23.618,23.618,0,0,1,4.31-2.511,22.239,22.239,0,0,1,9.523-1.949L536.452,287.1Z" transform="translate(-315.926 -282.744)"/><path class="e" d="M510.686,342.287a4.845,4.845,0,0,1-2.269-.512,5.791,5.791,0,0,1-1.859-1.492,7.238,7.238,0,0,1-1.258-2.249,8.372,8.372,0,0,1-.462-2.766V290.214a8.371,8.371,0,0,1,.462-2.769,7.236,7.236,0,0,1,1.258-2.249,5.789,5.789,0,0,1,1.859-1.487,4.845,4.845,0,0,1,2.269-.512,4.965,4.965,0,0,1,2.261.607,6.091,6.091,0,0,1,1.843,1.558,7.549,7.549,0,0,1,1.241,2.276,8.508,8.508,0,0,1,.455,2.762V335.08a8.51,8.51,0,0,1-.455,2.762,7.553,7.553,0,0,1-1.241,2.278,6.089,6.089,0,0,1-1.843,1.56,4.965,4.965,0,0,1-2.261.606Z" transform="translate(-288.814 -283.196)"/><path class="f" d="M338.7,335.436a6.256,6.256,0,0,1-1.724-.216,6.418,6.418,0,0,1-.84-.29,6.678,6.678,0,0,1-.811-.412,6.8,6.8,0,0,1-1.422-1.124,6.87,6.87,0,0,1-1.066-1.449,7.155,7.155,0,0,1-.668-1.7,7.6,7.6,0,0,1-.231-1.874V295.678a7.607,7.607,0,0,1,.231-1.874,7.161,7.161,0,0,1,.668-1.7,6.769,6.769,0,0,1,2.489-2.573,6.567,6.567,0,0,1,1.651-.708,6.263,6.263,0,0,1,3.443.049,6.728,6.728,0,0,1,1.638.746l26.113,16.335.094.06.094.061.092.062.091.064a6.722,6.722,0,0,1,1.141,1.044,6.881,6.881,0,0,1,.875,1.271,7.165,7.165,0,0,1,.579,1.451,7.546,7.546,0,0,1,.262,1.584v.456a7.621,7.621,0,0,1-.22,1.83,7.188,7.188,0,0,1-.637,1.664,6.87,6.87,0,0,1-1.017,1.431,6.717,6.717,0,0,1-1.363,1.124l-26.1,16.364a6.852,6.852,0,0,1-.8.434,6.575,6.575,0,0,1-.835.314,6.362,6.362,0,0,1-.855.194A6.258,6.258,0,0,1,338.7,335.436Z" transform="translate(-331.937 -281.846)"/></g><path class="c" d="M715.919,447.693,421.2,487.682a20.825,20.825,0,0,1-17.685-5.872,24.2,24.2,0,0,1-5.45-8.285,28.894,28.894,0,0,1-2.008-10.764,33.033,33.033,0,0,1,7.459-20.8,29.349,29.349,0,0,1,8.005-6.851,24.194,24.194,0,0,1,9.679-3.164l294.717-29.1a11.292,11.292,0,0,1,6.2,1.144,14.5,14.5,0,0,1,5.019,4.263,21.442,21.442,0,0,1,3.364,6.693,28.738,28.738,0,0,1,1.229,8.472,31.708,31.708,0,0,1-1.229,8.76,28.107,28.107,0,0,1-3.363,7.482,20.489,20.489,0,0,1-5.019,5.44,13.619,13.619,0,0,1-6.2,2.6Z" transform="translate(-245.01 -71.622)"/><path class="d" d="M669.579,453.055,421.2,486.757a20.825,20.825,0,0,1-17.685-5.872,24.2,24.2,0,0,1-5.45-8.285,28.9,28.9,0,0,1-2.008-10.759,32.538,32.538,0,0,1,.491-5.622,32.9,32.9,0,0,1,6.964-15.189,30.736,30.736,0,0,1,3.853-3.927,27.678,27.678,0,0,1,4.309-3.02,25.155,25.155,0,0,1,4.649-2.044,23.4,23.4,0,0,1,4.873-1.018l248.38-24.528Z" transform="translate(-245.01 -70.697)"/><path class="f" d="M338.618,485.774a6.241,6.241,0,0,1-.866.054,6,6,0,0,1-.857-.067,5.871,5.871,0,0,1-1.651-.509,5.747,5.747,0,0,1-2.489-2.285,6.341,6.341,0,0,1-.668-1.624,7.289,7.289,0,0,1-.231-1.84v-32.7a7.939,7.939,0,0,1,.231-1.9,8.093,8.093,0,0,1,3.157-4.643,7.541,7.541,0,0,1,1.651-.9,6.661,6.661,0,0,1,1.724-.419,6.108,6.108,0,0,1,1.72.065,5.962,5.962,0,0,1,1.637.554l26.113,13.285.095.049.094.051.092.052.091.054a5.65,5.65,0,0,1,1.087.857A5.806,5.806,0,0,1,370.4,455a6.263,6.263,0,0,1,.586,1.286,6.966,6.966,0,0,1,.3,1.446q.01.1.018.195t.013.2q0,.1.008.2a1.35,1.35,0,0,1,0,.2,7.946,7.946,0,0,1-.22,1.856,8.08,8.08,0,0,1-1.641,3.291,7.988,7.988,0,0,1-1.374,1.288l-26.113,19.407a8.027,8.027,0,0,1-.806.527,7.472,7.472,0,0,1-.835.411,7,7,0,0,1-.855.294,6.579,6.579,0,0,1-.863.174Z" transform="translate(-261.022 -62.611)"/><path class="g" d="M615.722,417.015a12.564,12.564,0,0,1,14.349,12.855l41.667,16.038L652.86,459.4l-36.674-17.3a12.632,12.632,0,0,1-.464-25.083Z" transform="translate(-192.945 -68.105)"/><path class="e" d="M768.9,410.688l7.049,12.816a36.8,36.8,0,0,1-12.492,20.752c-10.792,9.1-67.223,43-67.223,43l-71.241-35.765,12.463-16.561,55.93,18.744,31.552-29.8Z" transform="translate(-187.912 -69.651)"/><rect class="f" width="7.496" height="239.887" transform="translate(580.098 543.392) rotate(-10.671)"/><rect class="f" width="7.496" height="239.887" transform="translate(521.503 779.127) rotate(-169.329)"/><ellipse class="f" cx="55.599" cy="18.116" rx="55.599" ry="18.116" transform="translate(512.282 516.877)"/><path class="g" d="M364.516,623.509H349.2l-7.287-59.082h22.607Z" transform="translate(85.276 140.773)"/><path class="h" d="M648.152,765.291l-49.39,0v-.625a19.225,19.225,0,0,1,19.223-19.224h30.168Z" transform="translate(-194.453 13.84)"/><path class="g" d="M429.2,557.675l-13.38,7.458-35.133-48.057,19.747-11.007Z" transform="translate(94.948 126.218)"/><path class="h" d="M712.356,697.42l-43.141,24.048-.3-.546a19.225,19.225,0,0,1,7.431-26.152h0l26.349-14.687Z" transform="translate(-177.565 -2.461)"/><path class="h" d="M803.043,538.208s7.427,23.011-38.142,52.111L706.214,648.8l-60.98,145.867-36.2-16.23L664.7,629.828l32.556-57,.944-30.931,8.008-21.8,58.1-20.615Z" transform="translate(-191.892 -47.506)"/><path class="h" d="M681.754,722.1l-60.571-91.321a21.69,21.69,0,0,1,2.9-27.463l61.329-59.991,10.4-10.4h23.269l-10.911,40.257L670.32,616.092l43.76,77.436Z" transform="translate(-189.76 -39.163)"/><path class="e" d="M709,436.217l18.252-26.12,41.7-3.355S804.81,440.52,798.287,485s-12.77,88.207-12.77,88.207-64.969-46.228-98.7-29.986Z" transform="translate(-172.492 -70.635)"/><path class="g" d="M694.7,548.2a12.564,12.564,0,0,1,16.718-9.574l28.336-34.5,6.862,22.163-27.961,29.367A12.632,12.632,0,0,1,694.7,548.2Z" transform="translate(-170.579 -46.347)"/><path class="e" d="M725.7,568.29l-12.48-18.027,35.439-47.251L730.4,463.892l1.329-46.533,15.086-2.787.187.094a37.077,37.077,0,0,1,16.067,18.714c3.763,9.408,12.165,44.727,16.838,64.942a23.565,23.565,0,0,1-6.336,22.095Z" transform="translate(-165.907 -68.682)"/><circle class="g" cx="28.779" cy="28.779" r="28.779" transform="matrix(0.511, -0.86, 0.86, 0.511, 527.426, 311.932)"/><path class="h" d="M752.01,378.53c-.3,4.179,3.615,19.588,3.615,19.588,2.872-4.832-1.64,11.227-1.64,11.227,47.141-32.86,9.893-65.873-4.678-62.939.3-4.179-11.579-2.523-11.579-2.523-4.528-7.051-14.451,2.309-14.451,2.309l1.915-3.221c-7.7,1.96-15.319,25.771-15.319,25.771C712.484,379.014,752.313,374.352,752.01,378.53Z" transform="translate(-166.742 -86.968)"/><path class="e" d="M615.052,456.954a3.45,3.45,0,0,1-1.863-.25,4.123,4.123,0,0,1-1.525-1.177,5.877,5.877,0,0,1-1.037-1.915,7.883,7.883,0,0,1-.375-2.465v-40.81a8.742,8.742,0,0,1,.375-2.554,7.79,7.79,0,0,1,1.037-2.156,5.807,5.807,0,0,1,1.527-1.533,4.05,4.05,0,0,1,1.862-.686,3.5,3.5,0,0,1,1.857.329,4.34,4.34,0,0,1,1.514,1.234,6.14,6.14,0,0,1,1.02,1.943,8.009,8.009,0,0,1,.375,2.46v40.5a8.873,8.873,0,0,1-.375,2.548,8.1,8.1,0,0,1-1.02,2.181,6.121,6.121,0,0,1-1.514,1.587,4.206,4.206,0,0,1-1.856.763Z" transform="translate(-191.588 -71.47)"/><path class="f" d="M1085.385,762.865H276.65a1.488,1.488,0,1,1,0-2.975h808.735a1.488,1.488,0,1,1,0,2.975Z" transform="translate(-275.162 17.444)"/></g></svg>