<svg xmlns="http://www.w3.org/2000/svg" width="315.34" height="223.504" viewBox="0 0 315.34 223.504"><defs><style>.a{fill:#ffb6b6;}.b{fill:#2f2e41;}.c{fill:#3f3d56;}.d{fill:#f0f0f0;}.e{fill:#cacaca;}.f{fill:#fff;}.g{fill:#6c63ff;}.h{opacity:0.35;}</style></defs><g transform="translate(-0.005 -0.011)"><path class="a" d="M85.755,539.964h5.234l2.49-20.188H85.754Z" transform="translate(-53.136 -322.084)"/><path class="b" d="M270.706,729.2h16.1V729a6.265,6.265,0,0,0-6.264-6.265h0l-2.94-2.23-5.485,2.231h-1.4Z" transform="translate(-238.271 -505.863)"/><path class="a" d="M107.98,482.739l4.12,3.227,14.41-14.357-6.081-4.764Z" transform="translate(-66.909 -289.285)"/><path class="b" d="M284.179,667.5l12.671,9.925.125-.16a6.265,6.265,0,0,0-1.068-8.795h0l-.939-3.569-5.694-1.626-1.106-.866Z" transform="translate(-246.621 -469.864)"/><path class="b" d="M282.331,422.937s6.947,7.2,3.859,23.927l2.592,28.634.669,1.326a4.2,4.2,0,0,1-.78,4.865h0l-.551,1.709-.515,3.345-19.167,28.815-7.332-7.718,11.835-27.014-3.216-6.947-7.461-24.184-5.146,44.252,1.029,38.077H248.3l-6.1-42.451-6.432-59.689,3.346-6.947Z" transform="translate(-216.619 -321.468)"/><path class="c" d="M228.687,320.046l-.07-.1c-3.749-5.248,1.889-17.86,2.74-19.688h0a4.59,4.59,0,0,1-3.142-4.9l.367-3.116.382-3.056-2.737-2.737-.008-.068L224.643,272.6l-2.29-9.155a20.1,20.1,0,0,1,5.7-19.479l5.294-.841,6.434-6.2h10.376l3.558,3.4c6.641,1.165,7.782.784,13.487,7.63l-2.592,21.284-.647,2.928,0,3.971,1.644,1.827a5.686,5.686,0,0,1,1.349,4.918l-.216,1.081h0c1.7.727,3.314,13.641,3.7,15.444l.577,2.694c.494.652,3.755,5,3.755,6.188,0,.178-.132.351-.414.542-2.222,1.5-11.082,12.179-16.518,10-5.791-2.315-28.809,1.158-29.041,1.193Z" transform="translate(-207.938 -206.199)"/><path class="a" d="M218.933,356.644s2.665-15.059-.02-20.722l-10.649.761,1.621,21.483,9.309,23.853a4.242,4.242,0,1,0,6.876-2.458Z" transform="translate(-199.578 -267.547)"/><path class="c" d="M205.166,277.122l.659-7.177a20.578,20.578,0,0,1,7.379-13.978h0a9.009,9.009,0,0,1,9.427-1.244h0a8.987,8.987,0,0,1,4.642,11.359c-2.461,6.455-1.573,13.281-6.372,14.114l.521,2.481-4.719,15.4-13.44-1.557Z" transform="translate(-196.48 -216.734)"/><path class="a" d="M360.253,346.066s-7.8-13.154-13.529-15.7l-7.577,7.521,15.238,15.23L377,365.133a4.242,4.242,0,1,0,3.61-6.347Z" transform="translate(-280.683 -264.107)"/><path class="c" d="M311.119,285.913l-4.181-5.871a20.578,20.578,0,0,1-3.521-15.409h0a9.009,9.009,0,0,1,6.335-7.091h0a8.987,8.987,0,0,1,10.926,5.584c2.344,6.5,10.892,17.18,7.8,20.94l2.013,1.541,3.042,8.667-11.2,7.584Z" transform="translate(-258.359 -218.761)"/><circle class="a" cx="11.523" cy="11.523" r="11.523" transform="translate(24.813 4.68)"/><path class="b" d="M258.486,219.66c-.1-.088-.2-.182-.294-.273,0,.009,0,.019-.008.028Z" transform="translate(-230.512 -195.334)"/><path class="b" d="M267.3,160.2A6.534,6.534,0,0,0,265,157.972a9.651,9.651,0,0,0-2.017-.715l-1.824-.5a14.458,14.458,0,0,0-2.869-.578,7.385,7.385,0,0,0-6.746,3.66c-.551.977-.993,2.2-2.056,2.553-.857.288-1.793-.118-2.694-.039a3.244,3.244,0,0,0-2.463,1.814,6.99,6.99,0,0,0-.646,3.1,17.35,17.35,0,0,0,5.523,12.949c.3-.784-.192-1.63-.58-2.38s-.634-1.817.022-2.363c.73-.608,1.9-.018,2.764-.415a1.93,1.93,0,0,0,.965-1.55c.084-.63,0-1.271.036-1.9a4.77,4.77,0,0,1,5.1-4.461c1.966.14,3.873,1.484,5.765.931a17.115,17.115,0,0,1,2.564-1.031,4.522,4.522,0,0,1,2.837,1A10.115,10.115,0,0,0,267.3,160.2Z" transform="translate(-221.523 -156.162)"/><path class="d" d="M387.392,712.671l-2.932-4.712-.586,2.693c-.1.472-.205.951-.3,1.426-.833-.711-1.719-1.369-2.586-2q-3.993-2.9-7.983-5.8l.833,4.83a34.271,34.271,0,0,0,2.32,8.728c.141.308.293.612.456.909h12.376a3.992,3.992,0,0,0,.205-.852.294.294,0,0,0,0-.057C389.392,715.987,388.373,714.249,387.392,712.671Z" transform="translate(-301.663 -495.805)"/><path class="d" d="M932.4,688.154l-5.319-8.547-1.062,4.884c-.186.855-.373,1.725-.545,2.587-1.511-1.29-3.118-2.484-4.691-3.629q-7.243-5.257-14.48-10.527l1.511,8.761c.931,5.395,1.9,10.9,4.208,15.832.255.559.531,1.111.828,1.649h22.448a7.228,7.228,0,0,0,.373-1.545.534.534,0,0,0,.007-.1C936.024,694.169,934.175,691.017,932.4,688.154Z" transform="translate(-632.132 -476.377)"/><path class="e" d="M500.327,742.055l-314.434.117a.453.453,0,1,1,0-.906l314.434-.117a.453.453,0,1,1,0,.906Z" transform="translate(-185.434 -518.657)"/><path class="c" d="M444.832,385.92V495.083a5.251,5.251,0,0,0,5.247,5.247H611.846a5.251,5.251,0,0,0,5.247-5.247V385.92a5.253,5.253,0,0,0-5.247-5.241H450.079A5.253,5.253,0,0,0,444.832,385.92Z" transform="translate(-346.173 -295.283)"/><path class="f" d="M454.81,393.453V499.911a2.809,2.809,0,0,0,2.8,2.8H616.683a2.809,2.809,0,0,0,2.8-2.8V393.453a2.81,2.81,0,0,0-2.8-2.81H457.614A2.81,2.81,0,0,0,454.81,393.453Z" transform="translate(-352.356 -301.457)"/><path class="b" d="M434.769,708.2a3.146,3.146,0,0,0,2.475,1.184H610.46a3.187,3.187,0,0,0,3.116-3.841l-2.689-12.772a3.193,3.193,0,0,0-1.985-2.315,3.089,3.089,0,0,0-1.131-.213H439.923a3.088,3.088,0,0,0-1.131.213,3.193,3.193,0,0,0-1.985,2.315l-2.689,12.772A3.185,3.185,0,0,0,434.769,708.2Z" transform="translate(-339.493 -487.112)"/><rect class="c" width="5.335" height="3.201" rx="0.488" transform="translate(267.047 208.633) rotate(180)"/><rect class="c" width="5.335" height="3.201" rx="0.488" transform="translate(256.377 208.633) rotate(180)"/><rect class="c" width="5.335" height="3.201" rx="0.488" transform="translate(245.707 208.633) rotate(180)"/><rect class="c" width="5.335" height="3.201" rx="0.488" transform="translate(235.037 208.633) rotate(180)"/><rect class="c" width="5.335" height="3.201" rx="0.488" transform="translate(224.368 208.633) rotate(180)"/><rect class="c" width="5.335" height="3.201" rx="0.488" transform="translate(213.698 208.633) rotate(180)"/><rect class="c" width="5.335" height="3.201" rx="0.488" transform="translate(203.028 208.633) rotate(180)"/><rect class="c" width="5.335" height="3.201" rx="0.488" transform="translate(192.358 208.633) rotate(180)"/><rect class="c" width="5.335" height="3.201" rx="0.488" transform="translate(181.688 208.633) rotate(180)"/><rect class="c" width="5.335" height="3.201" rx="0.488" transform="translate(171.018 208.633) rotate(180)"/><rect class="c" width="5.335" height="3.201" rx="0.488" transform="translate(160.348 208.633) rotate(180)"/><rect class="c" width="5.335" height="3.201" rx="0.488" transform="translate(149.678 208.633) rotate(180)"/><rect class="c" width="5.335" height="3.201" rx="0.488" transform="translate(139.008 208.633) rotate(180)"/><rect class="c" width="5.335" height="3.201" rx="0.488" transform="translate(128.339 208.633) rotate(180)"/><rect class="c" width="5.335" height="3.201" rx="0.488" transform="translate(117.668 208.633) rotate(180)"/><rect class="c" width="5.335" height="3.201" rx="0.488" transform="translate(106.999 208.633) rotate(180)"/><rect class="c" width="5.335" height="3.201" rx="0.488" transform="translate(267.173 213.968) rotate(180)"/><rect class="c" width="5.335" height="3.201" rx="0.488" transform="translate(256.504 213.968) rotate(180)"/><rect class="c" width="5.335" height="3.201" rx="0.488" transform="translate(245.833 213.968) rotate(180)"/><rect class="c" width="5.335" height="3.201" rx="0.488" transform="translate(235.164 213.968) rotate(180)"/><rect class="c" width="5.335" height="3.201" rx="0.488" transform="translate(224.493 213.968) rotate(180)"/><rect class="c" width="5.335" height="3.201" rx="0.488" transform="translate(213.824 213.968) rotate(180)"/><rect class="c" width="5.335" height="3.201" rx="0.488" transform="translate(203.154 213.968) rotate(180)"/><rect class="c" width="5.335" height="3.201" rx="0.488" transform="translate(192.484 213.968) rotate(180)"/><rect class="c" width="5.335" height="3.201" rx="0.488" transform="translate(181.814 213.968) rotate(180)"/><rect class="c" width="5.335" height="3.201" rx="0.488" transform="translate(171.144 213.968) rotate(180)"/><rect class="c" width="5.335" height="3.201" rx="0.488" transform="translate(160.474 213.968) rotate(180)"/><rect class="c" width="5.335" height="3.201" rx="0.488" transform="translate(149.804 213.968) rotate(180)"/><rect class="c" width="5.335" height="3.201" rx="0.488" transform="translate(139.135 213.968) rotate(180)"/><rect class="c" width="5.335" height="3.201" rx="0.488" transform="translate(128.464 213.968) rotate(180)"/><rect class="c" width="5.335" height="3.201" rx="0.488" transform="translate(117.795 213.968) rotate(180)"/><rect class="c" width="5.335" height="3.201" rx="0.488" transform="translate(107.125 213.968) rotate(180)"/><rect class="c" width="42.68" height="3.201" rx="0.488" transform="translate(204.167 220.37) rotate(180)"/><path class="c" d="M649.283,501.429A36,36,0,1,1,647,488.754c.079.211.155.423.23.636v0q.5,1.407.878,2.867A36.242,36.242,0,0,1,649.283,501.429Z" transform="translate(-428.253 -347.755)"/><path class="g" d="M637.686,493.533a12.158,12.158,0,0,0-10.674-.437,5.758,5.758,0,0,0-3.562,3.919c2.014-1.188,4.62.689,5.138,3.7l-.121.033a7.366,7.366,0,0,0,1.52,5.651,3.975,3.975,0,0,1,1.908-2.829,7.56,7.56,0,0,0,2.494-1.968,12.614,12.614,0,0,0,1.3-4.417C636,495.634,636.592,493.966,637.686,493.533Z" transform="translate(-456.858 -364.308)"/><path class="g" d="M600.038,509.88a12.829,12.829,0,0,1-1.971,2.017,4.537,4.537,0,0,0-1.433,2.68c-.085.729.046,1.47.028,2.206s-.264,1.566-.765,1.749c-.791.286-1.4-1.184-2.208-1.286-.646-.081-1.228.936-1.041,1.818s1.067,1.272,1.572.7c.457.767.135,2.158-.552,2.394-.072.483-.145.964-.215,1.448a23.811,23.811,0,0,1-4.964-4.226,12.826,12.826,0,0,1-2.923-6.909c-.191-2.043.093-4.381-.845-5.953a3.229,3.229,0,0,0-3.2-1.458c-.211.014-.425.038-.636.064a35.839,35.839,0,0,1,2.6-5.939,2.543,2.543,0,0,0,.65-.4c1.079-.916,1.558-2.77,2.434-4.053q.085-.124.175-.242a8.345,8.345,0,0,1,3.255-2.331c2.567-1.246,5.208-2.508,7.918-2.335l-.771.074q-1.35,3.781-2.7,7.562-.205.58-.415,1.162a11.952,11.952,0,0,0-.96,4.564,2.785,2.785,0,0,0,1,2.291c.586.3,1.226-.068,1.792-.435.24-.153.477-.306.717-.461.86-.554,1.812-1.121,2.72-.751a3.209,3.209,0,0,1,1.562,2.686A5.369,5.369,0,0,1,600.038,509.88Z" transform="translate(-430.481 -362.902)"/><path class="g" d="M629.217,580.107l-7.532-4.638.043-.11c-1.561.595-2.209,3.369-1.951,5.638s1.133,4.3,1.575,6.509a17.277,17.277,0,0,1-.651,9.065,74.234,74.234,0,0,0,8.721-12.018,6.428,6.428,0,0,0,.789-1.749,2.783,2.783,0,0,0-.184-1.979A2.2,2.2,0,0,0,629.217,580.107Z" transform="translate(-454.548 -415.921)"/><path class="g" d="M618.211,510.694a2.776,2.776,0,0,0-.127,2.019,2.238,2.238,0,0,0,1.25,1.158l1.387.688a1.791,1.791,0,0,0,1.429.272,1.906,1.906,0,0,0,.859-1.943,3.457,3.457,0,0,0-1.175-2l-2.151-2.161-.4.495A5.4,5.4,0,0,0,618.211,510.694Z" transform="translate(-453.451 -374.631)"/><path class="g" d="M695.352,513.206l1.872.441c-.109,2.108-1.154,4.059-2.555,4.765a4.767,4.767,0,0,0-1.717.952,5.223,5.223,0,0,0-.862,2.019l-1.069,3.889c-.382,1.4-.874,2.949-1.868,3.453a2.066,2.066,0,0,1-2.486-.984,11.846,11.846,0,0,1-1.445-3.245,3.339,3.339,0,0,1-1.4,2.953,1.83,1.83,0,0,1-2.416-.942c-.4-.707-.57-1.639-.964-2.355s-1.222-1.127-1.653-.455a6.113,6.113,0,0,0-.389,1.7,1.845,1.845,0,0,1-1.542,1.484,2.571,2.571,0,0,1-1.846-.844,8.363,8.363,0,0,1-2.293-4.624,5.517,5.517,0,0,1,.064-2.529c.248-.783.846-1.387,1.439-1.238.391-.825-.38-1.921-1.075-1.824s-1.242.844-1.814,1.417-1.367.99-1.941.421a.787.787,0,0,1-.8.835,2.855,2.855,0,0,1-1.041-.552,2.823,2.823,0,0,0-3.918,1.274c.584-2.484,1.439-5.335,3.233-5.919.733-.24,1.532-.042,2.225-.457,1.226-.735,1.474-3.511.415-4.657a4.465,4.465,0,0,1-.463,3.088.98.98,0,0,1-1.7-.837.734.734,0,0,1-1.365.29,2.637,2.637,0,0,1-.078-2.221,5.23,5.23,0,0,1,1.174-1.667,14.39,14.39,0,0,1,3.034-2.706,3.439,3.439,0,0,1,3.5-.221c.586.338,1.1.9,1.7,1.2a1.259,1.259,0,0,0,1.754-.439c.445-.781.236-1.941.4-2.917.3-1.725,2.021-2.533,2.978-1.393-.715-.183-1.454.662-1.542,1.687a2.434,2.434,0,0,0,1.119,2.37c1.164.515,2.3-.781,3.183-1.981q1.377-1.884,2.758-3.767a4.55,4.55,0,0,1,.493-.6,1.587,1.587,0,0,1,2.168-.044c.93.759,1.367,2.315,2.13,3.386,1.107,1.556,2.764,1.935,4.306,2.237q1.724.335,3.451.674a35.746,35.746,0,0,1,2,4.423A12.123,12.123,0,0,0,695.352,513.206Z" transform="translate(-481.76 -367.748)"/><path class="g" d="M761.439,531.42a7.258,7.258,0,0,0-.383,2.156,5.417,5.417,0,0,1-.5-5.023Q761.059,529.96,761.439,531.42Z" transform="translate(-541.581 -386.916)"/><path class="g" d="M743.275,598.971a36.1,36.1,0,0,1-3,5.019c-.725-.31-1.5.244-2.182.763-.709.544-1.56,1.073-2.287.578-.743-.507-.982-1.927-.747-3.052a8.131,8.131,0,0,1,1.393-2.867,5.621,5.621,0,0,1,2.09-2.188,1.629,1.629,0,0,1,2.168,1.341l.6-.02c-.334-.459-.159-1.409.29-1.576.517-.2.966.515,1.272,1.144C743,598.4,743.144,598.682,743.275,598.971Z" transform="translate(-525.965 -429.291)"/><path class="g" d="M672.169,563.94c-1.281.081-2.3-1.5-2.97-3.047s-1.289-3.325-2.445-4.115a7.143,7.143,0,0,0-2.13-.732,2.637,2.637,0,0,1-1.808-1.592l-.812-.328a12.2,12.2,0,0,0-3.085,2.2,6.9,6.9,0,0,0-1.838,4.019c-.155,1.626.418,3.44,1.489,4.051.846.483,1.831.178,2.688.62,1.071.552,1.707,2.156,1.947,3.74s.18,3.229.352,4.831.647,3.268,1.629,4.089c1.229,1.027,3.032.174,3.584-1.7.27-.917.261-1.952.464-2.9a15.37,15.37,0,0,1,2.08-4.3A6.487,6.487,0,0,0,672.169,563.94Z" transform="translate(-477.683 -402.763)"/><path class="g" d="M663.2,532.077a3.432,3.432,0,0,1,.334.354,1.163,1.163,0,0,1-.02,1.2,1.118,1.118,0,0,0,.8-.407,5.147,5.147,0,0,0,.614-.865.942.942,0,0,0,.181-.754c-.06-.173-.2-.246-.3-.376a2.557,2.557,0,0,1-.281-.815,1.47,1.47,0,0,0-1.066-1.123l.064.012a.609.609,0,0,0-.285.649c.039.251.2.46.184.716-.023.368-.391.541-.414.91A.7.7,0,0,0,663.2,532.077Z" transform="translate(-481.371 -387.374)"/><path class="g" d="M657.745,519.96h.006a1.026,1.026,0,0,0,.109-.116Z" transform="translate(-478.11 -381.519)"/><path class="g" d="M655.459,521.859a1.117,1.117,0,0,0,.348-1.107c-.093-.419-.422-.7-.726-.623a.74.74,0,0,1-.688.2c-.188-.048-.394-.173-.557-.031a.844.844,0,0,0-.19.37l-.181.555a.35.35,0,0,0-.021.21.178.178,0,0,0,.137.109l1.085.32a.935.935,0,0,0,.794-.005Z" transform="translate(-475.44 -381.687)"/><path class="g" d="M727.3,584.565l-.5-.821a2.743,2.743,0,0,0-.661-.83.586.586,0,0,0-.834.083l.02.156a3.532,3.532,0,0,1,.881,1.719c.038.28.025.569.058.85a.992.992,0,0,0,.31.693c.263.176.573-.083.76-.4a1.377,1.377,0,0,0,.213-.876A1.537,1.537,0,0,0,727.3,584.565Z" transform="translate(-519.976 -420.517)"/><path class="g" d="M735.231,583.286a1.894,1.894,0,0,0-.061-.764,1.677,1.677,0,0,1,.255-.951,3.091,3.091,0,0,0,.4-.872.729.729,0,0,0-.019-.427c-.055-.124-.189-.181-.266-.083l.165.106a1.5,1.5,0,0,0-.668.032.826.826,0,0,0-.506.571,3.537,3.537,0,0,1-.133.592c-.1.2-.288.269-.408.446a1.066,1.066,0,0,0,.017,1.013,1.183,1.183,0,0,0,.669.526C734.875,583.546,735.139,583.55,735.231,583.286Z" transform="translate(-525.282 -418.882)"/><path class="g" d="M747.1,589.48a2.3,2.3,0,0,0,.289.531c.224.225.528.087.8.032a1.381,1.381,0,0,1,1.314.527,3.344,3.344,0,0,0-1.924-2.4,5.651,5.651,0,0,0-1.978-.309l-.115.029C745.782,588.743,746.7,588.724,747.1,589.48Z" transform="translate(-532.483 -423.667)"/><path class="g" d="M697.716,596.6l0,0,.033-.064Z" transform="translate(-502.879 -429.048)"/><path class="g" d="M694.7,598.08a6.3,6.3,0,0,0-.4.873,7.605,7.605,0,0,0-.288,1.494c-.036.288-.047.656.133.8a.256.256,0,0,0,.335-.046,1.325,1.325,0,0,0,.243-.361,8.311,8.311,0,0,0,.819-1.945,3.384,3.384,0,0,0-.134-2.181Z" transform="translate(-500.572 -429.153)"/><path class="g" d="M677.243,499.465a.807.807,0,0,0,.87.17,2.869,2.869,0,0,0,.818-.54,1.924,1.924,0,0,0,.5-.541,1.1,1.1,0,0,0,.1-.836.849.849,0,0,0-.647-.512l-1.2-.357.29-.262c-.3-.16-.629.137-.816.506a2.727,2.727,0,0,0-.248.763A1.958,1.958,0,0,0,677.243,499.465Z" transform="translate(-489.951 -367.08)"/><path class="g" d="M696.08,495.238a.663.663,0,0,0,.9.074,1.011,1.011,0,0,0,.4-.72c.028-.316-.128-.667-.351-.694l.051-.3c-.43-.078-.958-.093-1.189.429a1.225,1.225,0,0,0,.184,1.208Z" transform="translate(-501.699 -365.233)"/><path class="e" d="M624.323,440.057H477.014a.386.386,0,1,1,0-.772H624.323a.386.386,0,1,1,0,.772Z" transform="translate(-365.876 -331.599)"/><ellipse class="c" cx="4.155" cy="4.248" rx="4.155" ry="4.248" transform="translate(115.485 94.557)"/><ellipse class="c" cx="4.155" cy="4.248" rx="4.155" ry="4.248" transform="translate(129.839 94.557)"/><ellipse class="c" cx="4.155" cy="4.248" rx="4.155" ry="4.248" transform="translate(144.193 94.557)"/><path class="c" d="M824.477,407.532h-10.2a.772.772,0,1,0,0,1.544h10.2a.772.772,0,1,0,0-1.544Z" transform="translate(-574.633 -311.922)"/><path class="c" d="M824.477,415.152h-10.2a.772.772,0,1,0,0,1.544h10.2a.772.772,0,1,0,0-1.544Z" transform="translate(-574.633 -316.644)"/><path class="c" d="M824.477,422.762h-10.2a.772.772,0,1,0,0,1.544h10.2a.772.772,0,1,0,0-1.544Z" transform="translate(-574.633 -321.36)"/><g class="h" transform="translate(109.707 145.041)"><path class="f" d="M626.523,547.922c2.371-1.034-2.437-1.636-7.892-1.833s-12.054-.187-15.541-.75c-3.372-.544-3.123-1.512-3.407-2.389s-1.58-1.776-6.841-1.971c-6.556-.243-17.367.692-22.316.131-4.618-.524-1.873-2.167-8.608-2.23-3.846-.036-8.8.506-13.079.637a47.675,47.675,0,0,1-9.075-.473c-2.086-.342-3.538-.775-5.886-1.077-6.162-.792-18.219-.526-28.981.49s-19.986,2.68-25.188,4.328-6.64,3.271-5.427,4.648c.774.879,2.754,1.7,7.557,2.054,8.984.661,24.98-.476,34.264.125,5.174.335,7.47,1.165,12.01,1.62,4.877.488,12.017.514,19.032.5,14.606-.024,29.586-.174,44.861-.449,6.38-.115,13.065-.264,19.854-.812s13.713-1.6,15.145-2.6" transform="translate(-473.88 -537.504)"/></g></g></svg>