<svg xmlns="http://www.w3.org/2000/svg" width="752.018" height="616.645" viewBox="0 0 752.018 616.645"><defs><style>.a{fill:#2f2e41;}.b{fill:#e6e6e6;}.c{fill:#6c63ff;}.d{fill:#fff;}.e{fill:#ffb8b8;}.f{opacity:0.2;}.g{fill:#3f3d56;}.h{fill:#ffb6b6;}.i{fill:#cacaca;}</style></defs><g transform="translate(0 0)"><path class="a" d="M370.784,751.016l1.53,32.241h0a20.571,20.571,0,0,1-19.572,21.52l-.668.032-2.5-52.788Z" transform="translate(-185.165 -188.346)"/><path class="b" d="M895.241,630.266a370.575,370.575,0,0,1-59.476,85.179c-.547.592-1.1,1.169-1.658,1.757L775.719,689.56c.357-.593.749-1.26,1.17-1.988,25.081-42.913,176.483-304.686,171.7-363.975C949.145,328.487,967.087,490.2,895.241,630.266Z" transform="translate(-251.234 -122.081)"/><path class="b" d="M851.618,761.2c-.817.465-1.655.919-2.5,1.359l-43.8-20.736c.612-.435,1.326-.948,2.146-1.526,13.419-9.635,53.322-38.542,92.366-69.608,41.959-33.385,82.935-69.257,89.02-86.379C987.612,588.232,949.209,707.583,851.618,761.2Z" transform="translate(-255.823 -162.5)"/><circle class="c" cx="67.597" cy="67.597" r="67.597" transform="translate(5.264 479.982)"/><path class="d" d="M261.682,699.586H207.528a9.036,9.036,0,0,0-9.026,9.026v38.682a9.036,9.036,0,0,0,9.026,9.026h54.154a9.036,9.036,0,0,0,9.026-9.026V708.612a9.036,9.036,0,0,0-9.026-9.026Zm0,5.158a3.847,3.847,0,0,1,.958.125l-28.029,22.359-27.865-22.4a3.873,3.873,0,0,1,.782-.08Zm0,46.418H207.528a3.873,3.873,0,0,1-3.868-3.868V708.959l29.33,23.582a2.579,2.579,0,0,0,3.224.006l29.337-23.4v38.149a3.873,3.873,0,0,1-3.868,3.868Z" transform="translate(-161.744 -180.373)"/><path class="e" d="M534.3,613.385l15.125.125A10.523,10.523,0,0,0,559.9,601.317h0a10.523,10.523,0,0,0-15.046-7.766l-14.263,7.038L481.8,611.468,460.9,590.1,448.9,609.872l28.2,21.79Z" transform="translate(-200.565 -163.399)"/><path class="a" d="M527,777.646l-17.82,3.427c-12.172-38.369-25.36-74.7-25.359-102.807-17.226,19.171-38.587,30.139-63.74,33.584l2.741-42.493,20.561-10.966,31.469-14.524a23.9,23.9,0,0,1,8.758-2.167h0a23.9,23.9,0,0,1,24.852,20.088Z" transform="translate(-196.096 -171.393)"/><path class="a" d="M428.95,709.024l-7.1,5.4a22,22,0,0,1-21.684,2.827h0c-20.343-15.249-34.8-10.75-47.894,12.266-15.711-17.732-19.588-43.342-5.566-69.838L424.5,661.39l15.764-4.8Z" transform="translate(-183.381 -173.707)"/><path class="a" d="M405.431,796.631h0a19.863,19.863,0,0,1-23.507-9.9c-6.991-6.158-12.889-14.974-18.006-25.694a198.868,198.868,0,0,1-9.436-24.236c-3.54-10.934,2.379-22.879,13.4-26.15q.491-.146.995-.275c14.708-3.776,29.811,4.707,34.839,19.035l14.619,41.664a19.863,19.863,0,0,1-12.166,25.319Q405.8,796.517,405.431,796.631Z" transform="translate(-185.768 -181.906)"/><path class="f" d="M362.891,764.878s17.135,19.191,20.561,30.157" transform="translate(-187.231 -190.496)"/><path class="e" d="M283.048,643.385l-5.735,14a10.523,10.523,0,0,0,7.428,14.256h0a10.523,10.523,0,0,0,12.8-11.084L296.306,644.7l8.024-49.335,27.6-11.466-13.9-18.492-30.708,18.089Z" transform="translate(-173.841 -159.57)"/><path class="c" d="M426.066,641c-19.693,33.078-58.95,45.887-92.574,19.985,5.915-19.434,25.011-73.146,12.674-75.2-26.194,10.984-26.232-14.806-31.131-27.714l59.628-21.932,32.213,8.91,6.6,2.343a22.324,22.324,0,0,1,14.856,20.733C414.8,587.673,404.786,608.527,426.066,641Z" transform="translate(-179.811 -155.033)"/><path class="c" d="M451.022,616.661l-23.645-19.533,7.882-45.578,32.213,34.269Z" transform="translate(-197.228 -157.422)"/><path class="g" d="M863.444,231.238h-3.38V138.677a53.571,53.571,0,0,0-53.571-53.571H610.389a53.571,53.571,0,0,0-53.571,53.571v507.8a53.571,53.571,0,0,0,53.571,53.571h196.1a53.571,53.571,0,0,0,53.571-53.571V297.125h3.38Z" transform="translate(-217.296 -85.106)"/><path class="d" d="M811.365,101.6h-25.6a19.007,19.007,0,0,1-17.6,26.189H655.823a19.007,19.007,0,0,1-17.6-26.186H614.312A40.007,40.007,0,0,0,574.3,141.609V648.662a40.007,40.007,0,0,0,40.007,40.007H811.359a40.007,40.007,0,0,0,40.007-40.007h0V141.606A40.007,40.007,0,0,0,811.359,101.6h.007Z" transform="translate(-220.007 -87.663)"/><circle class="b" cx="21.969" cy="21.969" r="21.969" transform="translate(471.202 528.733)"/><path class="b" d="M632.491,496.4a4.337,4.337,0,0,0,0,8.6H810.054a4.337,4.337,0,0,0,0-8.6Z" transform="translate(-228.444 -148.873)"/><path class="b" d="M632.491,616.405a4.337,4.337,0,0,0,0,8.6H810.054a4.337,4.337,0,0,0,0-8.6Z" transform="translate(-228.444 -167.477)"/><path class="b" d="M632.491,526.932a4.337,4.337,0,0,0,0,8.6H708.9a4.337,4.337,0,0,0,0-8.6Z" transform="translate(-228.444 -153.605)"/><path class="b" d="M632.491,556.03a4.337,4.337,0,0,0,0,8.6H810.054a4.337,4.337,0,0,0,0-8.6Z" transform="translate(-228.444 -158.117)"/><path class="b" d="M632.491,586.558a4.337,4.337,0,0,0,0,8.6H708.9a4.337,4.337,0,0,0,0-8.6Z" transform="translate(-228.444 -162.849)"/><path class="c" d="M672.008,264.733H782.541a4.611,4.611,0,0,1,4.606,4.605V384.454a4.611,4.611,0,0,1-4.605,4.605H672.008a4.611,4.611,0,0,1-4.606-4.605V269.339a4.611,4.611,0,0,1,4.606-4.606Z" transform="translate(-234.441 -112.955)"/><path class="d" d="M763.581,382.63a3.127,3.127,0,1,0,0-6.253H700.153a3.127,3.127,0,0,0,0,6.253Z" transform="translate(-239.033 -130.264)"/><path class="d" d="M763.581,360.828a3.127,3.127,0,0,0,0-6.253H700.153a3.127,3.127,0,0,0,0,6.253Z" transform="translate(-239.033 -126.884)"/><path class="d" d="M734.649,292.828a19.681,19.681,0,1,1-19.681,19.681h0A19.7,19.7,0,0,1,734.649,292.828Z" transform="translate(-241.815 -117.311)"/><path class="a" d="M429.511,517.432H371.082a4.538,4.538,0,0,1-4.533-4.533V487.714a33.748,33.748,0,1,1,67.5,0V512.9a4.538,4.538,0,0,1-4.533,4.533Z" transform="translate(-187.798 -142.293)"/><circle class="h" cx="24.743" cy="24.743" r="24.743" transform="translate(185.37 358.723) rotate(-61.337)"/><path class="a" d="M445.157,491.9H409.43l-.366-5.13-1.832,5.13h-5.5L401,481.729,397.373,491.9H386.729v-.5a26.726,26.726,0,0,1,26.7-26.7h5.037a26.726,26.726,0,0,1,26.7,26.7Z" transform="translate(-190.926 -143.956)"/><path class="a" d="M408.3,525.847a4.634,4.634,0,0,1-.8-.071l-26.162-4.616V477.923h28.8l-.713.831c-9.92,11.569-2.446,30.329,2.891,40.482a4.466,4.466,0,0,1-.355,4.742A4.515,4.515,0,0,1,408.3,525.847Z" transform="translate(-190.091 -146.007)"/><path class="a" d="M516.333,787.282h32.279a20.571,20.571,0,0,1,20.57,20.568v.67l-52.848,0Z" transform="translate(-211.02 -193.969)"/><path class="i" d="M906.173,814.584H155.845a.845.845,0,1,1,0-1.69H906.173a.845.845,0,1,1,0,1.69Z" transform="translate(-155 -197.94)"/></g></svg>