<svg xmlns="http://www.w3.org/2000/svg" width="508.797" height="429.293" viewBox="0 0 508.797 429.293"><defs><style>.a{fill:#f2f2f2;}.b{fill:#e6e6e6;}.c{fill:#fff;}.d{fill:#ccc;}.e{fill:#2f2e41;}.f{fill:#ffb6b6;}.g{fill:#6c63ff;}.h{fill:#3f3d56;}.i{fill:#ff6584;}.j,.k{opacity:0.15;}</style></defs><g transform="translate(0 0.001)"><path class="a" d="M542.883,259.377q0,9.048-.761,17.913-.6,6.92-1.635,13.716-1.1,7.2-2.7,14.217v.005q-1.044,4.621-2.293,9.167a204.148,204.148,0,0,1-8.995,25.856Q525.337,343,524.1,345.7a204.256,204.256,0,0,1-10.5,19.931,208.019,208.019,0,0,1-40.116,48.48q-2.558,2.274-5.185,4.473a206.34,206.34,0,0,1-132.6,47.983c-114.43,0-207.192-92.762-207.192-207.192S221.261,52.185,335.691,52.185A206.278,206.278,0,0,1,464.522,97.1q2.574,2.04,5.083,4.171a208.67,208.67,0,0,1,22.786,22.554h.005a206.386,206.386,0,0,1,50.487,135.549Z" transform="translate(-128.499 -52.185)"/><path class="b" d="M213.807,454.226c-19.737-11.747-34.635-33.7-32.7-56.588A105.826,105.826,0,0,0,247.652,426.8c9.616.568,20.371.2,27.449,6.733,4.4,4.065,6.455,10.186,6.791,16.17s-.863,11.937-2.055,17.811l.41,1.439C257.279,469.044,233.544,465.974,213.807,454.226Z" transform="translate(-152.644 -211.245)"/><path class="c" d="M181.279,397.323a90.453,90.453,0,0,0,37.6,41.033,38.95,38.95,0,0,0,11.348,4.491,22.341,22.341,0,0,0,11.721-.929c3.526-1.189,6.994-2.813,10.747-3.125a13.679,13.679,0,0,1,10.5,3.871c3.521,3.271,5.656,7.612,7.6,11.929,2.155,4.794,4.317,9.807,8.449,13.254.5.418-.177,1.17-.677.753-7.188-6-8.362-16.042-14.108-23.106-2.681-3.3-6.372-5.8-10.756-5.738-3.834.058-7.412,1.73-10.972,2.965a23.838,23.838,0,0,1-11.427,1.335,36.011,36.011,0,0,1-11.479-4.038,87.755,87.755,0,0,1-21.851-16.577,92.057,92.057,0,0,1-17.649-25.811c-.27-.591.7-.9.964-.309Z" transform="translate(-152.336 -210.954)"/><path class="c" d="M226.748,467.884a13.571,13.571,0,0,1-17.167,3.753c-.574-.308-.122-1.214.452-.906a12.566,12.566,0,0,0,15.962-3.524c.392-.52,1.143.16.753.677Z" transform="translate(-165.71 -243.191)"/><path class="c" d="M283.489,466.759a26.157,26.157,0,0,0-9.107-16.746c-.5-.419.178-1.172.677-.753a27.207,27.207,0,0,1,9.442,17.445c.08.648-.932.7-1.011.054Z" transform="translate(-195.589 -234.957)"/><path class="c" d="M201.731,424.9a7.682,7.682,0,0,0,2.584-6.816c-.088-.646.924-.7,1.011-.054a8.608,8.608,0,0,1-2.842,7.546.523.523,0,0,1-.715.038.509.509,0,0,1-.038-.715Z" transform="translate(-162.159 -220.426)"/><path class="b" d="M288.292,315.46c.066.4.133.8.207,1.21a101.167,101.167,0,0,0,4.056,15.9c.131.4.27.809.413,1.207a106.649,106.649,0,0,0,19.739,33.943,103.575,103.575,0,0,0,11.166,11.089c5.521,4.706,11.882,9.369,15.422,15.446a17.768,17.768,0,0,1,1.009,1.954l-15.035,34.3c-.073.061-.139.125-.212.187l-.538,1.4c-.218-.161-.442-.333-.66-.495-.127-.093-.251-.194-.378-.287-.084-.064-.167-.129-.246-.183-.028-.021-.056-.043-.076-.061-.079-.053-.147-.111-.218-.161q-1.875-1.437-3.736-2.906c-.008,0-.008,0-.012-.015a152.284,152.284,0,0,1-25.669-25.246c-.221-.284-.45-.57-.664-.869a98.828,98.828,0,0,1-8.768-13.536,87.354,87.354,0,0,1-3.76-8,72.654,72.654,0,0,1-5.174-22.119c-1.1-15.148,2.652-30.48,12.382-41.887C287.789,316.033,288.034,315.749,288.292,315.46Z" transform="translate(-195.941 -173.407)"/><path class="c" d="M297.745,315.383a90.453,90.453,0,0,0,5.313,55.4,38.952,38.952,0,0,0,6.357,10.418,22.34,22.34,0,0,0,9.918,6.315c3.531,1.173,7.278,1.965,10.462,3.976a13.679,13.679,0,0,1,6.05,9.41c.842,4.731-.067,9.483-1.116,14.1-1.166,5.125-2.457,10.43-1.234,15.67.148.635-.846.828-.994.194-2.128-9.117,2.982-17.843,2.647-26.943-.156-4.246-1.593-8.471-5.134-11.058-3.1-2.262-6.96-3.081-10.545-4.239a23.84,23.84,0,0,1-9.928-5.814,36.011,36.011,0,0,1-6.734-10.135,87.758,87.758,0,0,1-7.467-26.392,92.057,92.057,0,0,1,1.448-31.234c.14-.635,1.1-.3.956.334Z" transform="translate(-204.993 -173.061)"/><path class="c" d="M291.464,401.6a13.571,13.571,0,0,1-15.967-7.339c-.273-.591.633-1.043.907-.451a12.566,12.566,0,0,0,14.866,6.8c.626-.179.817.816.194.994Z" transform="translate(-196.159 -209.353)"/><path class="c" d="M336.887,432.389a26.156,26.156,0,0,0,2.811-18.854c-.146-.635.848-.828.994-.194a27.207,27.207,0,0,1-2.964,19.613C337.4,433.519,336.563,432.951,336.887,432.389Z" transform="translate(-224.415 -218.295)"/><path class="c" d="M295.574,351.1a7.682,7.682,0,0,0,6.167-3.886c.319-.569,1.157,0,.84.565a8.608,8.608,0,0,1-6.813,4.314.523.523,0,0,1-.594-.4.509.509,0,0,1,.4-.594Z" transform="translate(-205.239 -187.919)"/><path class="d" d="M372.858,140.9l25.359,296.863L347.5,441.58V144.68C353.543,140.682,362.218,140.056,372.858,140.9Z" transform="translate(-229.335 -92.883)"/><path class="d" d="M604.858,140.9,579.5,437.767l50.719,3.813V144.68C624.174,140.682,615.5,140.056,604.858,140.9Z" transform="translate(-336.157 -92.883)"/><path class="d" d="M513.5,452.75H352.252A9.764,9.764,0,0,1,342.5,443V147.938a9.764,9.764,0,0,1,9.752-9.752H513.5a9.764,9.764,0,0,1,9.752,9.752V443A9.764,9.764,0,0,1,513.5,452.75ZM352.252,141.423a6.522,6.522,0,0,0-6.515,6.515V443a6.523,6.523,0,0,0,6.515,6.515H513.5A6.523,6.523,0,0,0,520.016,443V147.938a6.522,6.522,0,0,0-6.515-6.515Z" transform="translate(-227.033 -91.783)"/><rect class="d" width="178" height="3" transform="translate(116.816 95.661)"/><rect class="d" width="178" height="3" transform="translate(116.816 149.661)"/><rect class="d" width="3.237" height="147.301" transform="translate(171.453 48.021)"/><rect class="d" width="3.237" height="147.301" transform="translate(236.995 48.021)"/><path class="d" d="M518.155,712.821H305.567a14.568,14.568,0,0,1,0-29.136H518.155a14.568,14.568,0,0,1,0,29.136Z" transform="translate(-203.321 -342.952)"/><rect class="d" width="177" height="11" transform="translate(117.816 187.661)"/><path class="e" d="M406.6,424.629l-.224-.108c-12.028-5.81-27.778-5.805-51.071.019l-.249.062-.075-.246c-2.464-8.079-5.255-17.23-.012-21.733.074-13.211,11.662-23.939,25.9-23.939s25.819,10.722,25.9,23.93c7.8,5.964,4.083,14.778-.037,21.8Z" transform="translate(-231.404 -202.518)"/><path class="f" d="M542.112,403.689a7.47,7.47,0,0,1-10.061,5.475l-42.505,42.714-3.793-13.263,42.216-39.666a7.51,7.51,0,0,1,14.143,4.74Z" transform="translate(-292.993 -209.868)"/><path class="g" d="M394.847,457.784s-3.856,8.739,5.659,14.129,42.773-2.057,48.169-3.1,25.551-31.2,25.551-31.2l-2.85-14.792-26.73,23.2Z" transform="translate(-250.78 -222.841)"/><path class="f" d="M382.277,577.01l.54,10.252s-1.593,9.081-.283,11.041,36.771,2.2,36.771,2.2,2.344-12.635,4.363-23.694Z" transform="translate(-245.229 -293.74)"/><path class="f" d="M438.191,749.382l7.416-1.5-2.123-29.953-10.944,2.211Z" transform="translate(-199.158 -330.563)"/><path class="f" d="M452.269,676.876l6.894-3.1-8.943-28.659-10.175,4.576Z" transform="translate(-202.613 -297.036)"/><path class="e" d="M492.779,662.684l-12.981,7.35-32.013-51.443c-22.474,15.141-44.45,22.391-66.6,26.261-7.49,1.334-15.127.658-16.565-6.966q-.1-.535-.161-1.075c-.885-8.327,9.474-19,10.79-29.189l28.349-1.7,3.5,4.482,32.785-20.156a14.073,14.073,0,0,1,19.368,4.9q.325.535.6,1.1Z" transform="translate(-237.118 -298.992)"/><path class="e" d="M480.123,710.5l-14.853,1.38L438.339,656.8c-26.706,4.593-51.9,6.064-73.693.508A14.086,14.086,0,0,1,354.572,640.3q.127-.529.294-1.047c2.608-7.957,9.435-13.588,14.814-22.34l39.289.6-4.388,15.141,38.167-4.939a14.073,14.073,0,0,1,15.657,12.409q.077.621.1,1.248Z" transform="translate(-232.407 -312.206)"/><circle class="f" cx="15.954" cy="15.954" r="15.954" transform="translate(136.436 182.373)"/><path class="g" d="M382.788,460l14.628,1.721a2.985,2.985,0,0,1,2.567,2.327l2.326,10.645,14.5,17.077s5.207,9.764,3.255,20.83-2.811,19.288-2.811,19.288-38.9,14.585-40.2,12.632-1.724-10.823-1.724-10.823l-5.207-57.933S375.98,466,379.234,466C381.335,465.928,381.065,461.2,382.788,460Z" transform="translate(-239.751 -239.957)"/><ellipse class="g" cx="3.714" cy="4.457" rx="3.714" ry="4.457" transform="translate(174.185 286.576)"/><path class="e" d="M564.693,809.278,576,803.612l2.131,4.971,14.3,2.89a3.378,3.378,0,0,1,.662,6.417l-13.813,5.921-4.489-3.9,1.178,5.316-5.208,2.232Z" transform="translate(-329.34 -398.171)"/><path class="e" d="M585.2,746.74l11.2-5.864,2.218,4.933,14.345,2.638a3.378,3.378,0,0,1,.775,6.4l-13.707,6.163-4.557-3.817,1.271,5.294-5.168,2.324Z" transform="translate(-338.784 -369.285)"/><path class="e" d="M383.891,394a20.416,20.416,0,0,1-11.776-3.715L372,390.2v-.14a15.4,15.4,0,0,1,15.378-15.378h6.475a15.4,15.4,0,0,1,15.378,15.378,3.58,3.58,0,0,1-3.5,3.563l-21.473.37C384.134,394,384.012,394,383.891,394Z" transform="translate(-240.616 -200.676)"/><ellipse class="e" cx="4.317" cy="5.935" rx="4.317" ry="5.935" transform="translate(160.02 178.312) rotate(-30)"/><ellipse class="e" cx="5.935" cy="4.317" rx="5.935" ry="4.317" transform="translate(127.103 181.358) rotate(-45)"/><path class="h" d="M625.833,662.185H609.909a2.466,2.466,0,0,0-1.888.873,3.776,3.776,0,1,0,.974,7.108l1.321,4.292a2.488,2.488,0,0,0,2.378,1.756h10.353a2.488,2.488,0,0,0,2.378-1.757l2.786-9.052a2.488,2.488,0,0,0-2.378-3.22Zm-18.483,7.284a2.7,2.7,0,0,1,0-5.4c.049,0,.1.012.144.015a2.462,2.462,0,0,0,.038,1.317l1.139,3.7a2.664,2.664,0,0,1-1.321.36Z" transform="translate(-347.236 -333.052)"/><path class="f" d="M460.788,602.957a7.47,7.47,0,0,1-8.131-8.067l-53.114-28.463,11.617-7.438,50.111,29.06a7.51,7.51,0,0,1-.483,14.908Z" transform="translate(-253.298 -285.537)"/><path class="g" d="M373.812,475.8s-9.478-1.187-11.911,9.475,14.242,40.384,16.786,45.255,37.221,15.525,37.221,15.525l13.352-6.974-29.9-18.948Z" transform="translate(-235.855 -247.215)"/><path class="d" d="M374.435,342h3.237a5.935,5.935,0,0,1,5.935,5.935H368.5A5.935,5.935,0,0,1,374.435,342Z" transform="translate(-169.671 -157.47)"/><circle class="i" cx="32.073" cy="32.073" r="32.073" transform="translate(70.035 9.648)"/><path class="b" d="M410.631,105.769c-8.488-8.9-18.346-17.027-30.016-21.319a48.244,48.244,0,0,0-10.053-2.526c-.028,0-.054,0-.081,0a1.483,1.483,0,0,0-.17-.033,38.7,38.7,0,0,0-14.364.867,39.687,39.687,0,0,0-6.688,2.33,58.488,58.488,0,0,0-6.276,3.557,40.819,40.819,0,0,1-13.868,5.174,46.655,46.655,0,0,1-7.448.731,17.991,17.991,0,0,0-6.266.9,15.04,15.04,0,0,0-9.16,9.918.975.975,0,0,0,.434,1.065c.556.4,1.1.849,1.681,1.2a5.244,5.244,0,0,0,1.642.448q1.392.294,2.788.57,5.142,1.019,10.326,1.8,10.49,1.588,21.094,2.237a234.872,234.872,0,0,0,42.455-1.276,235.678,235.678,0,0,0,23.555-4.074.952.952,0,0,0,.416-1.577Z" transform="translate(-210.325 -65.719)"/><path class="b" d="M257.07,163.706a48.244,48.244,0,0,0-10.053-2.526c-.028,0-.054,0-.081,0a1.484,1.484,0,0,0-.17-.033,38.7,38.7,0,0,0-14.364.867,39.689,39.689,0,0,0-6.688,2.33,58.487,58.487,0,0,0-6.276,3.557,40.819,40.819,0,0,1-13.868,5.174,46.653,46.653,0,0,1-7.448.731,17.991,17.991,0,0,0-6.266.9,15.04,15.04,0,0,0-9.159,9.917.975.975,0,0,0,.434,1.065c.556.4,1.1.849,1.681,1.2a5.245,5.245,0,0,0,1.642.448q1.392.294,2.788.57,5.142,1.019,10.326,1.8,10.49,1.588,21.094,2.237a234.873,234.873,0,0,0,42.456-1.276,235.69,235.69,0,0,0,23.555-4.074.952.952,0,0,0,.416-1.577C278.6,176.121,268.74,168,257.07,163.706Z" transform="translate(-153.44 -102.212)"/><path class="h" d="M583.068,529.449l-24.664-32.4-19.461,11,41.239,48.972Z" transform="translate(-248.15 -228.86)"/><path class="h" d="M794.309,448.963a177.7,177.7,0,0,0,6.27,40.149q-1.165,2.744-2.406,5.45a204.27,204.27,0,0,1-10.5,19.931,208.022,208.022,0,0,1-40.116,48.48q-2.558,2.274-5.185,4.473a97.187,97.187,0,0,1-17.509-44.6c-.27-1.986-.491-3.993-.658-5.989v-.011a127.758,127.758,0,0,1-.394-14.59c.005-.388.016-.782.032-1.176.189-5.2.658-10.414,1.365-15.577V485.5c.081-.594.162-1.187.254-1.781.259-1.781.55-3.561.869-5.331a215.935,215.935,0,0,1,7.737-30.1v-.005c.092-.286.183-.567.286-.847.356-1.068.718-2.126,1.09-3.183a1.86,1.86,0,0,1,.086-.243q.72-2.072,1.473-4.112.2-.567.421-1.133c.567-1.516,1.144-3.022,1.732-4.505.183-.475.372-.95.561-1.419.146-.362.286-.723.437-1.079v-.005q1.287-3.181,2.606-6.237c2.466-5.73,5-11.12,7.473-16.09l.005-.005a295.624,295.624,0,0,1,19.581-33.933l35.012,11.331c-4.176,7.408-7.408,18.334-9.178,31.224a174.3,174.3,0,0,0-1.344,30.917Z" transform="translate(-402.576 -201.045)"/><path class="g" d="M685.73,492.168c-.205-.48-.437-.95-.674-1.419a26.578,26.578,0,0,0-4.7-6.475c-.281-.286-.572-.572-.874-.842a26.286,26.286,0,0,0-24.539-6.075l-.022.011-.162.043.038.183a15.257,15.257,0,0,0,.7,2.509c.081.221.173.432.264.642.038.1.086.183.129.281,0,0-.005.005.005.005s.005.011.005.016c.1.2.2.4.307.6-.221-.21-.432-.426-.637-.647-.2-.205-.383-.421-.567-.637a17.886,17.886,0,0,1-1.7-2.342l-.086-.146-.151.059a26.5,26.5,0,0,0-5.784,2.833l-.194.13a11.764,11.764,0,0,1-9.448,1.543,18.733,18.733,0,0,0-14.886,2.433,18.507,18.507,0,0,0-3.874,3.378c-.1.113-.194.232-.291.345-.205.248-.4.5-.588.761a18.486,18.486,0,0,0-3.6,9.3l-.011.124.1.07a16.033,16.033,0,0,0,6.065,2.525,18.144,18.144,0,0,1-4.122.1h-.005a16.693,16.693,0,0,1-1.856-.259l-.113-.022h-.005l-.14-.027.022.259a18.561,18.561,0,0,0,3.005,9.253l.054.076a.748.748,0,0,1,.054.086,19.423,19.423,0,0,1,1.9,3.728,17.761,17.761,0,0,1,.8,10.2,18.617,18.617,0,0,0,16.764,22.732c.448.038.9.059,1.354.059a18.6,18.6,0,0,0,7.538-1.57l.086-.032.022-.1a18.257,18.257,0,0,1,1.91-4.2,12.718,12.718,0,0,0-.4,3.167v.356l.308-.178c.264-.156.534-.324.777-.48a19.007,19.007,0,0,0,3.923-3.41c.448-.518.9-1.02,1.376-1.522l.005-.005c.923-.982,1.9-1.942,2.914-2.86a54.478,54.478,0,0,1,6.906-5.272,59.521,59.521,0,0,1,7.624-4.144h.005c.3-.14.6-.275.9-.4a26.3,26.3,0,0,0,3.782-2.029c.043-.027.081-.049.119-.076a26.327,26.327,0,0,0,9.669-32.644Z" transform="translate(-352.189 -247.547)"/><path class="j" d="M625.742,572.226a18.6,18.6,0,0,0-.334,1.988,18.847,18.847,0,0,1-.422-9.807c.112-.5.2-1,.262-1.506A17.687,17.687,0,0,1,625.742,572.226Z" transform="translate(-356.891 -287.338)"/><path class="j" d="M622.5,534.733a18.146,18.146,0,0,1-4.819.023,18.664,18.664,0,0,1-1.083-2.452,15.813,15.813,0,0,0,5.9,2.429Z" transform="translate(-353.237 -273.25)"/><path class="j" d="M616.62,522.234a18.755,18.755,0,0,0-1.166,4.7,18.543,18.543,0,0,1-.864-4.731l-.013-.259.255.049A18.017,18.017,0,0,0,616.62,522.234Z" transform="translate(-352.307 -268.478)"/><path class="j" d="M623.074,484.576a18.686,18.686,0,0,1,14.878-2.436,11.744,11.744,0,0,0,9.453-1.541l.195-.128a26.423,26.423,0,0,1,5.781-2.839l.155-.054.085.14a17.869,17.869,0,0,0,2.9,3.629,13.7,13.7,0,0,1-1.413-4.052l-.037-.187.184-.049a26.288,26.288,0,0,1,32.976,26.816,26.293,26.293,0,0,0-32.22-19l-.184.049.037.187a13.7,13.7,0,0,0,1.413,4.052,17.873,17.873,0,0,1-2.9-3.629l-.085-.14-.155.054a26.419,26.419,0,0,0-5.781,2.839l-.195.128a11.744,11.744,0,0,1-9.453,1.541,18.645,18.645,0,0,0-21.474,9.942,22.593,22.593,0,0,1-2.424-1.354l-.106-.067.013-.124a18.57,18.57,0,0,1,8.358-13.78Z" transform="translate(-352.366 -247.41)"/><path class="g" d="M814.188,181.592l-.513-.34-.372.486a44.152,44.152,0,0,0-6.793,12.027,57.6,57.6,0,0,1,2.6-14.725l.162-.5-.464-.264a85.084,85.084,0,0,0-19.154-7.942l-.728-.194A37.8,37.8,0,0,1,765.1,150.562a60.09,60.09,0,0,0-60.123-32.638h-.005c-.129.011-.264.027-.394.043-.221.022-.437.049-.653.076-.442.059-.874.119-1.306.183-.367.054-.739.113-1.106.178-.194.027-.383.059-.572.1s-.383.065-.572.1h-.005a59.488,59.488,0,0,0-10.608,3.049h-.005v.005l-.869.34q-1.343.55-2.665,1.165c-.2.092-.394.189-.594.281-.054.027-.113.054-.167.086-.567.27-1.128.55-1.683.847-.081.038-.162.081-.243.124l-.518.275q-1.708.923-3.356,1.959c-.092.054-.178.108-.27.167s-.2.13-.3.194c-.059.032-.119.076-.178.113-.167.1-.329.21-.491.324-.324.21-.647.426-.966.647s-.653.453-.977.685l-.324.232.059.4c.054.329.1.658.162.982s.108.642.167.96c.092.534.194,1.063.3,1.576.07.34.135.674.21,1s.146.68.227,1.02c.156.7.324,1.381.5,2.05.086.335.178.669.275,1,.054.2.108.4.167.594l.129.4c.011.043.022.092.038.14a1.275,1.275,0,0,0,.043.135q.089.3.178.583c.032.1.065.205.1.3.076.232.156.469.237.7.086.259.178.518.27.772.022.065.043.124.065.189.016.049.032.1.054.146s.043.113.065.167c.092.243.183.491.281.734.032.086.065.178.1.264a38.65,38.65,0,0,0,3.21,6.313q-2.1-1.8-4.036-3.809a58.084,58.084,0,0,1-5.5-6.642c-.135-.183-.27-.372-.394-.561-.254-.361-.5-.723-.745-1.09-.259-.378-.507-.772-.75-1.16-.162-.259-.324-.523-.48-.782s-.3-.491-.442-.739l-.421-.723h-.005v.005l-.594.583c-.237.232-.475.464-.707.7a59.964,59.964,0,0,0-15.253,26.25l-.081.3-.081.308c-.156.55-.313,1.085-.48,1.629v.005c-.162.54-.334,1.079-.518,1.608-.167.5-.34,1-.523,1.495q-.089.251-.194.5c-.113.324-.237.642-.361.966-.059.146-.119.3-.178.442-.146.356-.291.712-.437,1.063-.022.054-.049.113-.076.167-.043.108-.092.216-.135.318-.113.259-.232.523-.345.782-.081.167-.156.34-.232.507-.032.076-.07.151-.1.227-.2.432-.4.858-.62,1.279-.243.5-.491.993-.755,1.478-.232.453-.475.9-.728,1.338-.437.782-.9,1.559-1.37,2.315-.183.291-.367.583-.556.874-.043.07-.086.14-.129.205-.156.254-.318.5-.486.745-.113.167-.227.335-.34.5-.189.291-.389.572-.594.847-.054.086-.113.167-.173.248-.3.421-.6.831-.912,1.241-.011.005-.011.011-.016.016s-.011.005-.016.011c-.135.178-.27.356-.41.529-.183.254-.383.5-.583.745-.324.41-.664.826-1.009,1.23-.011.011-.016.022-.027.027a57.476,57.476,0,0,1-5.795,5.892c-.038.032-.065.065-.1.092-.291.254-.583.507-.885.755l-.372.308c-.205.173-.416.345-.621.5a.428.428,0,0,1-.081.065c-.183.151-.361.291-.545.432-.221.178-.442.345-.669.513q-1.6,1.214-3.291,2.293c-.167.113-.345.227-.518.335-.1.065-.205.129-.3.183-.41.254-.82.5-1.23.739s-.831.475-1.246.7c-.89.486-1.77.993-2.628,1.522-.432.27-.863.54-1.29.815q-2.541,1.651-4.894,3.534a59.744,59.744,0,0,0-4.505,4q-.267.259-.534.534c-.356.351-.7.707-1.031,1.063-.529.545-1.036,1.106-1.538,1.673a60.641,60.641,0,0,0-6.993,9.723,57.14,57.14,0,0,0-2.741,5.336c-.621,1.365-1.187,2.763-1.7,4.176q-.51,1.416-.955,2.86c-.146.48-.286.966-.421,1.451-.459,1.646-.842,3.308-1.155,4.975q-.38,2.007-.615,4.02c-.081.674-.146,1.349-.205,2.018q-.208,2.467-.213,4.938a60.059,60.059,0,0,0,1.788,14.664q.4,1.586.88,3.156c.162.523.335,1.041.507,1.559q.656,1.942,1.451,3.847.478,1.141,1,2.266a60.222,60.222,0,0,0,8.46,13.252q.834,1,1.721,1.959c.005,0,0,.005,0,.005a59.833,59.833,0,0,0,4.656,4.554h.005q.979.866,1.991,1.678c.005-.005.005,0,.005,0,.68.55,1.365,1.079,2.067,1.592q.526.38,1.068.761,1.06.753,2.164,1.451h.005q1.1.712,2.234,1.36c1.516.869,3.07,1.683,4.667,2.423l.27.124.275-.124a59.053,59.053,0,0,1,7.9-2.9c.594-.173,1.193-.329,1.786-.48q2.25-.558,4.532-.939a37.281,37.281,0,0,0-4.284,2.52c-1.063.718-2.11,1.5-3.162,2.363-.351.286-.7.583-1.052.885l-.874.755,1.1.362c.4.129.8.259,1.2.378.545.173,1.085.329,1.613.475q1.732.486,3.486.858l.853.178c.556.108,1.117.216,1.678.313a.367.367,0,0,0,.07.011c.583.1,1.171.189,1.754.27q1.627.235,3.254.372c.119.016.237.022.362.027.264.022.523.043.788.059.583.038,1.171.065,1.759.086.043,0,.081.005.124.005.3.011.594.022.89.027,0,0,0,.005.005,0,.3.005.594.011.89.011h1.64c.307,0,.615.005.928.005.432,0,.869.005,1.3.011.113,0,.232.005.351.005.691.011,1.381.027,2.072.043.043,0,.086.005.13.005.691.022,1.381.043,2.072.076.151.005.3.011.459.022q1,.04,1.991.1c.189.011.383.027.577.038.5.027,1.009.059,1.511.1.3.016.588.038.885.065,1.2.092,2.39.194,3.588.313.4.032.8.076,1.2.119q1.6.17,3.216.372c.48.054.96.119,1.441.183.054.005.108.011.162.022.594.081,1.182.162,1.775.248.388.054.777.113,1.165.173s.8.119,1.2.189c.216.032.432.07.653.108.518.081,1.041.167,1.565.264a1.264,1.264,0,0,1,.14.022c1.112.194,2.228.4,3.34.62.653.124,1.3.254,1.948.388.507.1,1.014.21,1.522.318.086.016.173.038.259.059a.277.277,0,0,0,.059.011c.766.167,1.538.34,2.3.523q3.99.923,7.969,2.05c.61.167,1.219.345,1.829.523.259.076.513.151.766.227.529.156,1.052.313,1.581.48.464.14.933.286,1.4.437.291.092.583.183.874.281.453.14.906.286,1.354.442.383.119.761.243,1.138.378.54.178,1.085.362,1.624.556.156.054.318.108.475.167.658.227,1.317.459,1.975.7.642.232,1.284.469,1.921.707.442.167.885.329,1.322.5.491.189.982.378,1.468.572.7.275,1.408.556,2.11.842.647.259,1.29.523,1.937.8.119.049.243.1.362.151.561.232,1.122.475,1.678.718.362.151.718.308,1.074.464q2.331,1.02,4.656,2.11h.005c.971.459,1.959.9,2.951,1.311.232.1.464.194.7.286.394.167.793.324,1.192.486.259.1.518.205.782.3.383.151.771.3,1.16.437.41.151.815.3,1.23.442.146.054.291.1.442.156.48.162.96.324,1.446.48.049.016.1.032.151.049.507.162,1.014.324,1.527.475a1.079,1.079,0,0,0,.124.038c.55.167,1.112.329,1.667.486.82.227,1.646.442,2.471.642.151.038.3.076.453.108.442.108.879.21,1.322.308.469.108.944.205,1.414.3s.95.194,1.419.281c.254.049.507.1.755.14l.664.113c.459.081.917.151,1.381.227a.1.1,0,0,1,.038.005c.523.081,1.041.156,1.565.221.5.07,1,.129,1.505.189l.318.032c.415.049.831.1,1.246.135l.356.032c.41.038.82.076,1.23.1a1.919,1.919,0,0,0,.248.016c.367.032.734.059,1.1.076.259.022.513.032.772.049l.4.016c.356.022.712.032,1.074.043.437.016.874.027,1.306.038.523.011,1.052.016,1.575.016h.011c.513,0,1.031-.005,1.543-.016h.194l.567-.016c.291-.005.583-.016.869-.027.55-.022,1.1-.049,1.64-.081.216-.011.437-.027.653-.038.1-.005.2-.016.3-.022.34-.022.674-.043,1.014-.07s.707-.059,1.058-.1c.453-.043.906-.092,1.36-.14.356-.038.712-.081,1.063-.124a1.1,1.1,0,0,0,.14-.022c.34-.038.68-.081,1.014-.129.4-.054.793-.113,1.187-.173l.124-.016c.68-.108,1.365-.216,2.05-.34.718-.13,1.435-.27,2.147-.415.264-.054.523-.113.788-.167.146-.032.3-.059.437-.092.221-.049.437-.1.653-.151.038-.005.081-.016.119-.022.3-.065.6-.14.9-.216.6-.146,1.2-.3,1.791-.459.264-.065.529-.135.782-.205.076-.022.151-.043.221-.065q1.643-.461,3.259-.977c.475-.151.944-.308,1.414-.475q1.513-.518,3-1.09c.264-.1.529-.205.793-.308.388-.156.777-.313,1.16-.469.345-.146.691-.291,1.041-.442.173-.07.345-.146.518-.221.518-.227,1.036-.459,1.549-.691.345-.162.685-.318,1.025-.48.54-.259,1.074-.523,1.608-.788.135-.07.264-.14.394-.205.34-.173.68-.351,1.025-.523.545-.291,1.09-.583,1.63-.885.183-.1.361-.2.545-.3q.89-.5,1.764-1.02,1.934-1.157,3.815-2.417c.313-.205.626-.421.933-.631.583-.4,1.155-.809,1.727-1.219.059-.043.113-.086.173-.124.286-.21.572-.421.858-.637.594-.448,1.182-.9,1.77-1.365.011-.005.027-.022.043-.032.264-.21.529-.421.788-.631.8-.653,1.6-1.317,2.374-2,.383-.329.761-.669,1.133-1.009.281-.254.561-.507.836-.766.556-.523,1.1-1.041,1.64-1.57.27-.259.534-.529.8-.8s.534-.54.8-.815c.092-.092.183-.189.275-.286.27-.286.54-.577.809-.863.232-.248.459-.507.691-.766.389-.432.782-.863,1.166-1.3a.832.832,0,0,1,.065-.07c.022-.027.043-.049.059-.07h-.005a84.675,84.675,0,0,0-16.872-125.7Z" transform="translate(-342.891 -82.291)"/><g class="k" transform="translate(251.225 35.628)"><path d="M795.642,118.217a42.409,42.409,0,0,0,4.806,10.964,58.373,58.373,0,0,1-9.411-10.278Q793.325,118.47,795.642,118.217Z" transform="translate(-684.782 -118.217)"/><path d="M692.5,191.7a60.27,60.27,0,0,0-11.13,7.824,61.36,61.36,0,0,0,12.307-23.336c.029-.1.057-.207.085-.31l.08-.292a59.986,59.986,0,0,1,15.957-26.953l.6-.583.422.721a58.656,58.656,0,0,0,8.32,10.962C714.241,173.547,704.718,185.041,692.5,191.7Z" transform="translate(-634.285 -131.955)"/><path d="M750.454,144.4l-.08.292c-.028.1-.057.207-.085.31-.158.568-.325,1.131-.5,1.692a62.521,62.521,0,0,1-3.573-13.714l-.063-.4.327-.234a60.518,60.518,0,0,1,13.274-7.216,60.122,60.122,0,0,0-9.3,19.267Z" transform="translate(-664.117 -121.4)"/><path d="M625.535,261.3a54.276,54.276,0,0,0,9.862-6.923,59.971,59.971,0,0,0,20.177,93.44l.273.126.272-.123a57.535,57.535,0,0,1,14.222-4.319,41.1,41.1,0,0,0-8.5,5.77l-.873.755,1.1.362c.945.313,1.891.6,2.81.855a60.552,60.552,0,0,0,16.588,2.219c25.468-.163,51.134,5.725,76.284,17.5a85.7,85.7,0,0,0,13.375,4.943,84.32,84.32,0,0,0,59.947-5.624,84.783,84.783,0,0,1-86.731,26.262,85.7,85.7,0,0,1-13.375-4.943c-25.151-11.775-50.817-17.664-76.284-17.5a60.552,60.552,0,0,1-16.588-2.219c-.919-.255-1.865-.543-2.81-.855l-1.1-.362.873-.755a41.1,41.1,0,0,1,8.5-5.77,57.531,57.531,0,0,0-14.222,4.319l-.272.123-.273-.126A60,60,0,0,1,625.535,261.3Z" transform="translate(-594.109 -180.909)"/></g></g></svg>